<svg width="328" height="84" viewBox="0 0 328 84" fill="none" xmlns="http://www.w3.org/2000/svg">
<g filter="url(#filter0_i_44_2)">
<rect x="0.5" width="327" height="84" rx="42" fill="white" fill-opacity="0.3"/>
<rect x="1.5" y="1" width="325" height="82" rx="41" stroke="white" stroke-width="2"/>
<path d="M65.25 29.625H70.875V35.25M51.75 54.375H46.125V48.75M70.875 48.75V54.375H65.25M46.125 35.25V29.625H51.75M64.6875 40.875V36.9375C64.6875 36.7883 64.6282 36.6452 64.5227 36.5398C64.4173 36.4343 64.2742 36.375 64.125 36.375H52.875C52.7258 36.375 52.5827 36.4343 52.4773 36.5398C52.3718 36.6452 52.3125 36.7883 52.3125 36.9375V40.875C52.3125 47.625 58.5 49.3125 58.5 49.3125C58.5 49.3125 64.6875 47.625 64.6875 40.875Z" stroke="#714DFF" stroke-width="2.25" stroke-linecap="round" stroke-linejoin="round"/>
<path d="M94.1875 53.5V30.2188H102.922C104.714 30.2188 106.214 30.5312 107.422 31.1562C108.641 31.7812 109.562 32.6562 110.188 33.7812C110.812 34.8958 111.125 36.1927 111.125 37.6719C111.125 39.1615 110.807 40.4531 110.172 41.5469C109.547 42.6406 108.62 43.4844 107.391 44.0781C106.161 44.6719 104.651 44.9688 102.859 44.9688H96.6562V41.4844H102.281C103.333 41.4844 104.193 41.3385 104.859 41.0469C105.536 40.7552 106.031 40.3281 106.344 39.7656C106.667 39.1927 106.828 38.4948 106.828 37.6719C106.828 36.849 106.667 36.1458 106.344 35.5625C106.021 34.9688 105.526 34.5208 104.859 34.2188C104.193 33.9062 103.328 33.75 102.266 33.75H98.4062V53.5H94.1875ZM107.266 53.5L101.625 42.9375H106.219L111.984 53.5H107.266ZM113.641 53.5V36.0312H117.75V53.5H113.641ZM115.703 33.5781C115.047 33.5781 114.484 33.3594 114.016 32.9219C113.547 32.4844 113.312 31.9583 113.312 31.3438C113.312 30.7188 113.547 30.1875 114.016 29.75C114.484 29.3125 115.047 29.0938 115.703 29.0938C116.349 29.0938 116.906 29.3125 117.375 29.75C117.844 30.1875 118.078 30.7135 118.078 31.3281C118.078 31.9531 117.844 32.4844 117.375 32.9219C116.906 33.3594 116.349 33.5781 115.703 33.5781ZM134.578 40.6719L130.844 41.0625C130.688 40.4896 130.349 39.9844 129.828 39.5469C129.307 39.099 128.573 38.875 127.625 38.875C126.771 38.875 126.052 39.0625 125.469 39.4375C124.896 39.8125 124.609 40.2917 124.609 40.875C124.609 41.3854 124.797 41.8073 125.172 42.1406C125.557 42.4635 126.193 42.724 127.078 42.9219L130.062 43.5469C131.698 43.8906 132.922 44.4531 133.734 45.2344C134.547 46.0156 134.953 47.026 134.953 48.2656C134.953 49.3594 134.635 50.3281 134 51.1719C133.365 52.0156 132.484 52.6719 131.359 53.1406C130.245 53.6094 128.958 53.8438 127.5 53.8438C125.365 53.8438 123.646 53.3958 122.344 52.5C121.052 51.5938 120.276 50.3385 120.016 48.7344L124.031 48.3594C124.208 49.1406 124.594 49.7344 125.188 50.1406C125.792 50.5365 126.562 50.7344 127.5 50.7344C128.479 50.7344 129.266 50.5365 129.859 50.1406C130.453 49.7344 130.75 49.2396 130.75 48.6562C130.75 47.6771 129.969 47.0104 128.406 46.6562L125.422 46.0312C123.745 45.6667 122.505 45.0781 121.703 44.2656C120.901 43.4427 120.5 42.3958 120.5 41.125C120.5 40.0417 120.797 39.1042 121.391 38.3125C121.984 37.5208 122.812 36.9062 123.875 36.4688C124.938 36.0312 126.167 35.8125 127.562 35.8125C129.615 35.8125 131.224 36.2552 132.391 37.1406C133.568 38.0156 134.297 39.1927 134.578 40.6719ZM140.922 48.0312L140.906 43.0469H141.578L147.844 36.0312H152.656L144.938 44.6406H144.078L140.922 48.0312ZM137.172 53.5V30.2188H141.281V53.5H137.172ZM148.125 53.5L142.438 45.5625L145.219 42.6562L153.047 53.5H148.125ZM164.094 53.5H159.578L167.797 30.2188H172.984L181.188 53.5H176.688L170.469 35H170.281L164.094 53.5ZM164.25 44.375H176.516V47.75H164.25V44.375ZM187 43.2812V53.5H182.891V36.0312H186.922V39.0156H187.125C187.521 38.0365 188.141 37.2604 188.984 36.6875C189.839 36.1042 190.922 35.8125 192.234 35.8125C193.443 35.8125 194.495 36.0677 195.391 36.5781C196.286 37.0885 196.979 37.8385 197.469 38.8281C197.969 39.8073 198.219 40.9948 198.219 42.3906V53.5H194.109V43.0312C194.109 41.8646 193.807 40.9531 193.203 40.2969C192.599 39.6302 191.766 39.2969 190.703 39.2969C189.984 39.2969 189.344 39.4531 188.781 39.7656C188.229 40.0781 187.792 40.5312 187.469 41.125C187.156 41.7083 187 42.4271 187 43.2812ZM206.297 53.8594C205.182 53.8594 204.182 53.6615 203.297 53.2656C202.411 52.8594 201.714 52.2656 201.203 51.4844C200.693 50.7031 200.438 49.7396 200.438 48.5938C200.438 47.6146 200.62 46.8021 200.984 46.1562C201.349 45.5104 201.844 44.9948 202.469 44.6094C203.104 44.224 203.818 43.9323 204.609 43.7344C205.401 43.526 206.219 43.3802 207.062 43.2969C208.094 43.1823 208.927 43.0833 209.562 43C210.198 42.9167 210.656 42.7812 210.938 42.5938C211.229 42.4062 211.375 42.1146 211.375 41.7188V41.6406C211.375 40.7969 211.125 40.1406 210.625 39.6719C210.125 39.2031 209.396 38.9688 208.438 38.9688C207.427 38.9688 206.625 39.1875 206.031 39.625C205.448 40.0625 205.052 40.5781 204.844 41.1719L201.016 40.625C201.318 39.5625 201.818 38.6771 202.516 37.9688C203.214 37.25 204.062 36.7135 205.062 36.3594C206.073 35.9948 207.188 35.8125 208.406 35.8125C209.24 35.8125 210.073 35.9115 210.906 36.1094C211.74 36.2969 212.505 36.6198 213.203 37.0781C213.901 37.5365 214.458 38.151 214.875 38.9219C215.292 39.6927 215.5 40.6562 215.5 41.8125V53.5H211.547V51.0938H211.422C211.172 51.5729 210.818 52.026 210.359 52.4531C209.911 52.8698 209.349 53.2083 208.672 53.4688C208.005 53.7292 207.214 53.8594 206.297 53.8594ZM207.344 50.8281C208.177 50.8281 208.896 50.6667 209.5 50.3438C210.104 50.0104 210.573 49.5729 210.906 49.0312C211.24 48.4792 211.406 47.8802 211.406 47.2344V45.1875C211.271 45.2917 211.052 45.3906 210.75 45.4844C210.448 45.5677 210.104 45.6458 209.719 45.7188C209.333 45.7917 208.953 45.8542 208.578 45.9062C208.214 45.9583 207.896 46 207.625 46.0312C207.01 46.1146 206.458 46.2552 205.969 46.4531C205.49 46.6406 205.109 46.901 204.828 47.2344C204.547 47.5677 204.406 48 204.406 48.5312C204.406 49.2917 204.682 49.8646 205.234 50.25C205.786 50.6354 206.49 50.8281 207.344 50.8281ZM222.656 30.2188V53.5H218.547V30.2188H222.656ZM228.266 60.0312C227.703 60.0417 227.182 60 226.703 59.9062C226.234 59.8229 225.854 59.724 225.562 59.6094L226.531 56.4062L226.734 56.4688C227.568 56.6875 228.276 56.7031 228.859 56.5156C229.453 56.3281 229.927 55.7604 230.281 54.8125L230.625 53.875L224.312 36.0312H228.672L232.688 49.2344H232.875L236.906 36.0312H241.297L234.297 55.6094C233.974 56.5365 233.547 57.3281 233.016 57.9844C232.484 58.651 231.828 59.1562 231.047 59.5C230.266 59.8542 229.339 60.0312 228.266 60.0312ZM242.734 53.5V50.8906L251.719 39.5938V39.4375H243.016V36.0312H256.75V38.8594L248.203 49.9375V50.0938H257.047V53.5H242.734ZM266.969 53.8438C265.219 53.8438 263.708 53.4792 262.438 52.75C261.167 52.0104 260.188 50.9688 259.5 49.625C258.823 48.2812 258.484 46.6979 258.484 44.875C258.484 43.0729 258.823 41.4948 259.5 40.1406C260.177 38.776 261.13 37.7135 262.359 36.9531C263.589 36.1927 265.036 35.8125 266.703 35.8125C267.776 35.8125 268.792 35.9844 269.75 36.3281C270.719 36.6719 271.573 37.2031 272.312 37.9219C273.062 38.6406 273.651 39.5573 274.078 40.6719C274.505 41.776 274.719 43.0938 274.719 44.625V45.9062H260.406V43.1406H272.672L270.75 43.9531C270.75 42.9635 270.599 42.1042 270.297 41.375C269.995 40.6354 269.547 40.0573 268.953 39.6406C268.359 39.224 267.62 39.0156 266.734 39.0156C265.849 39.0156 265.094 39.224 264.469 39.6406C263.844 40.0573 263.37 40.6198 263.047 41.3281C262.724 42.026 262.562 42.8073 262.562 43.6719V45.5938C262.562 46.6562 262.745 47.5677 263.109 48.3281C263.484 49.0781 264.005 49.651 264.672 50.0469C265.349 50.4427 266.135 50.6406 267.031 50.6406C267.615 50.6406 268.146 50.5573 268.625 50.3906C269.115 50.224 269.531 49.974 269.875 49.6406C270.229 49.2969 270.5 48.875 270.688 48.375L274.531 48.8281C274.281 49.8385 273.818 50.724 273.141 51.4844C272.474 52.2344 271.615 52.8177 270.562 53.2344C269.521 53.6406 268.323 53.8438 266.969 53.8438ZM276.953 53.5V36.0312H280.938V38.9688H281.125C281.438 37.9479 281.984 37.1667 282.766 36.625C283.547 36.0729 284.438 35.7969 285.438 35.7969C285.656 35.7969 285.906 35.8073 286.188 35.8281C286.479 35.849 286.719 35.875 286.906 35.9062V39.6875C286.729 39.625 286.453 39.5729 286.078 39.5312C285.703 39.4896 285.344 39.4688 285 39.4688C284.24 39.4688 283.562 39.6302 282.969 39.9531C282.375 40.276 281.906 40.7188 281.562 41.2812C281.229 41.8438 281.062 42.5 281.062 43.25V53.5H276.953Z" fill="#714DFF"/>
<path d="M181.564 72V61.92H185.526C186.165 61.92 186.702 62.0507 187.136 62.312C187.57 62.5733 187.897 62.9117 188.116 63.327C188.335 63.7377 188.445 64.1717 188.445 64.629C188.445 65.1843 188.307 65.6603 188.032 66.057C187.761 66.4537 187.395 66.7243 186.933 66.869L186.919 66.526C187.563 66.6847 188.058 66.995 188.403 67.457C188.748 67.9143 188.921 68.4487 188.921 69.06C188.921 69.6527 188.802 70.1683 188.564 70.607C188.331 71.0457 187.988 71.3887 187.535 71.636C187.087 71.8787 186.543 72 185.904 72H181.564ZM183.048 70.607H185.68C186.011 70.607 186.308 70.544 186.569 70.418C186.835 70.292 187.043 70.1123 187.192 69.879C187.346 69.641 187.423 69.3587 187.423 69.032C187.423 68.7287 187.355 68.4557 187.22 68.213C187.089 67.9657 186.898 67.772 186.646 67.632C186.399 67.4873 186.107 67.415 185.771 67.415H183.048V70.607ZM183.048 66.036H185.505C185.776 66.036 186.018 65.9823 186.233 65.875C186.452 65.763 186.625 65.6043 186.751 65.399C186.882 65.189 186.947 64.937 186.947 64.643C186.947 64.251 186.816 63.929 186.555 63.677C186.294 63.425 185.944 63.299 185.505 63.299H183.048V66.036ZM193.163 72.203C192.64 72.203 192.202 72.119 191.847 71.951C191.492 71.783 191.203 71.5637 190.979 71.293C190.76 71.0177 190.592 70.719 190.475 70.397C190.358 70.075 190.279 69.76 190.237 69.452C190.195 69.144 190.174 68.8733 190.174 68.64V64.44H191.658V68.157C191.658 68.451 191.681 68.7543 191.728 69.067C191.779 69.375 191.873 69.662 192.008 69.928C192.148 70.194 192.342 70.4087 192.589 70.572C192.841 70.7353 193.168 70.817 193.569 70.817C193.83 70.817 194.078 70.775 194.311 70.691C194.544 70.6023 194.747 70.4623 194.92 70.271C195.097 70.0797 195.235 69.8277 195.333 69.515C195.436 69.2023 195.487 68.822 195.487 68.374L196.397 68.717C196.397 69.403 196.269 70.0097 196.012 70.537C195.755 71.0597 195.387 71.468 194.906 71.762C194.425 72.056 193.844 72.203 193.163 72.203ZM195.662 72V69.816H195.487V64.44H196.964V72H195.662ZM199.067 63.201V61.78H200.53V63.201H199.067ZM199.067 72V64.44H200.53V72H199.067ZM202.772 72V61.71H204.235V72H202.772ZM210.663 72C210.187 72.0933 209.721 72.133 209.263 72.119C208.806 72.105 208.398 72.0163 208.038 71.853C207.679 71.6897 207.408 71.433 207.226 71.083C207.063 70.7703 206.974 70.453 206.96 70.131C206.951 69.8043 206.946 69.4357 206.946 69.025V62.34H208.416V68.955C208.416 69.2583 208.419 69.522 208.423 69.746C208.433 69.97 208.482 70.159 208.57 70.313C208.738 70.6023 209.004 70.768 209.368 70.81C209.737 70.8473 210.169 70.831 210.663 70.761V72ZM205.497 65.616V64.44H210.663V65.616H205.497ZM218.609 72.21C217.886 72.21 217.279 72.035 216.789 71.685C216.299 71.3303 215.928 70.852 215.676 70.25C215.424 69.648 215.298 68.969 215.298 68.213C215.298 67.457 215.422 66.778 215.669 66.176C215.921 65.574 216.29 65.1003 216.775 64.755C217.265 64.405 217.867 64.23 218.581 64.23C219.29 64.23 219.902 64.405 220.415 64.755C220.933 65.1003 221.332 65.574 221.612 66.176C221.892 66.7733 222.032 67.4523 222.032 68.213C222.032 68.969 221.892 69.6503 221.612 70.257C221.337 70.859 220.942 71.335 220.429 71.685C219.92 72.035 219.314 72.21 218.609 72.21ZM215.053 72V61.92H216.523V66.561H216.355V72H215.053ZM218.406 70.887C218.873 70.887 219.258 70.768 219.561 70.53C219.869 70.292 220.098 69.9723 220.247 69.571C220.401 69.165 220.478 68.7123 220.478 68.213C220.478 67.7183 220.401 67.2703 220.247 66.869C220.098 66.4677 219.867 66.148 219.554 65.91C219.241 65.672 218.842 65.553 218.357 65.553C217.9 65.553 217.522 65.665 217.223 65.889C216.929 66.113 216.71 66.4257 216.565 66.827C216.425 67.2283 216.355 67.6903 216.355 68.213C216.355 68.7357 216.425 69.1977 216.565 69.599C216.705 70.0003 216.927 70.3153 217.23 70.544C217.533 70.7727 217.925 70.887 218.406 70.887ZM224.135 75.36L225.598 71.377L225.619 72.553L222.322 64.44H223.848L226.312 70.705H225.864L228.216 64.44H229.7L225.528 75.36H224.135Z" fill="#5E5E67"/>
<path d="M233.599 72V61.92H235.083L240.046 69.41V61.92H241.53V72H240.046L235.083 64.503V72H233.599ZM243.624 63.201V61.78H245.087V63.201H243.624ZM243.624 72V64.44H245.087V72H243.624ZM250.038 72.203C249.515 72.203 249.077 72.119 248.722 71.951C248.367 71.783 248.078 71.5637 247.854 71.293C247.635 71.0177 247.467 70.719 247.35 70.397C247.233 70.075 247.154 69.76 247.112 69.452C247.07 69.144 247.049 68.8733 247.049 68.64V64.44H248.533V68.157C248.533 68.451 248.556 68.7543 248.603 69.067C248.654 69.375 248.748 69.662 248.883 69.928C249.023 70.194 249.217 70.4087 249.464 70.572C249.716 70.7353 250.043 70.817 250.444 70.817C250.705 70.817 250.953 70.775 251.186 70.691C251.419 70.6023 251.622 70.4623 251.795 70.271C251.972 70.0797 252.11 69.8277 252.208 69.515C252.311 69.2023 252.362 68.822 252.362 68.374L253.272 68.717C253.272 69.403 253.144 70.0097 252.887 70.537C252.63 71.0597 252.262 71.468 251.781 71.762C251.3 72.056 250.719 72.203 250.038 72.203ZM252.537 72V69.816H252.362V64.44H253.839V72H252.537ZM255.802 72V64.44H257.104V66.274L256.922 66.036C257.016 65.7933 257.137 65.5717 257.286 65.371C257.436 65.1657 257.608 64.9977 257.804 64.867C257.996 64.727 258.208 64.6197 258.441 64.545C258.679 64.4657 258.922 64.419 259.169 64.405C259.417 64.3863 259.655 64.398 259.883 64.44V65.812C259.636 65.7467 259.361 65.728 259.057 65.756C258.759 65.784 258.483 65.8797 258.231 66.043C257.993 66.197 257.804 66.3837 257.664 66.603C257.529 66.8223 257.431 67.0673 257.37 67.338C257.31 67.604 257.279 67.8863 257.279 68.185V72H255.802ZM263.133 72.21C262.573 72.21 262.104 72.1073 261.726 71.902C261.348 71.692 261.061 71.4167 260.865 71.076C260.673 70.7307 260.578 70.3527 260.578 69.942C260.578 69.5593 260.645 69.2233 260.781 68.934C260.916 68.6447 261.117 68.3997 261.383 68.199C261.649 67.9937 261.975 67.828 262.363 67.702C262.699 67.604 263.079 67.5177 263.504 67.443C263.928 67.3683 264.374 67.2983 264.841 67.233C265.312 67.1677 265.779 67.1023 266.241 67.037L265.709 67.331C265.718 66.7383 265.592 66.2997 265.331 66.015C265.074 65.7257 264.631 65.581 264.001 65.581C263.604 65.581 263.24 65.6743 262.909 65.861C262.577 66.043 262.346 66.3463 262.216 66.771L260.851 66.351C261.037 65.7023 261.392 65.1867 261.915 64.804C262.442 64.4213 263.142 64.23 264.015 64.23C264.691 64.23 265.279 64.3467 265.779 64.58C266.283 64.8087 266.651 65.1727 266.885 65.672C267.006 65.9193 267.081 66.1807 267.109 66.456C267.137 66.7313 267.151 67.0277 267.151 67.345V72H265.856V70.271L266.108 70.495C265.795 71.0737 265.396 71.5053 264.911 71.79C264.43 72.07 263.837 72.21 263.133 72.21ZM263.392 71.013C263.807 71.013 264.164 70.9407 264.463 70.796C264.761 70.6467 265.002 70.4577 265.184 70.229C265.366 70.0003 265.485 69.7623 265.541 69.515C265.62 69.291 265.664 69.039 265.674 68.759C265.688 68.479 265.695 68.255 265.695 68.087L266.171 68.262C265.709 68.332 265.289 68.395 264.911 68.451C264.533 68.507 264.19 68.563 263.882 68.619C263.578 68.6703 263.308 68.7333 263.07 68.808C262.869 68.878 262.689 68.962 262.531 69.06C262.377 69.158 262.253 69.277 262.16 69.417C262.071 69.557 262.027 69.7273 262.027 69.928C262.027 70.124 262.076 70.306 262.174 70.474C262.272 70.6373 262.421 70.768 262.622 70.866C262.822 70.964 263.079 71.013 263.392 71.013ZM269.108 72V61.71H270.571V72H269.108ZM274.776 72L278.052 61.92H280.159L283.435 72H281.916L278.899 62.802H279.277L276.295 72H274.776ZM276.477 69.725V68.353H281.741V69.725H276.477ZM284.831 72V61.92H286.294V72H284.831Z" fill="#714DFF"/>
</g>
<defs>
<filter id="filter0_i_44_2" x="-5.5" y="-6" width="339" height="96" filterUnits="userSpaceOnUse" color-interpolation-filters="sRGB">
<feFlood flood-opacity="0" result="BackgroundImageFix"/>
<feBlend mode="normal" in="SourceGraphic" in2="BackgroundImageFix" result="shape"/>
<feColorMatrix in="SourceAlpha" type="matrix" values="0 0 0 0 0 0 0 0 0 0 0 0 0 0 0 0 0 0 127 0" result="hardAlpha"/>
<feOffset dy="2"/>
<feGaussianBlur stdDeviation="1"/>
<feComposite in2="hardAlpha" operator="arithmetic" k2="-1" k3="1"/>
<feColorMatrix type="matrix" values="0 0 0 0 1 0 0 0 0 1 0 0 0 0 1 0 0 0 1 0"/>
<feBlend mode="normal" in2="shape" result="effect1_innerShadow_44_2"/>
</filter>
</defs>
</svg>
