<svg width="163" height="55" viewBox="0 0 163 55" fill="none" xmlns="http://www.w3.org/2000/svg">
<path d="M62.677 0.391724H55.9348C54.692 0.391724 53.877 1.34929 53.877 2.55088V52.7617C53.877 53.9636 54.692 54.9264 55.9348 54.9264H62.677C63.9198 54.9264 64.8755 53.9636 64.8755 52.7617V2.55088C64.8755 1.34929 63.9198 0.391724 62.677 0.391724Z" fill="black"/>
<path d="M41.6246 40.0418C41.0126 38.6993 39.2583 38.3294 38.1814 39.3379C35.3295 42.0092 31.5052 43.65 27.2887 43.65C16.2401 43.65 7.80923 32.4431 12.7437 20.7766C14.2022 17.3283 16.9695 14.5688 20.4187 13.1127C27.1601 10.2665 33.7196 11.8879 38.0707 15.8841C39.1589 16.8833 40.904 16.5289 41.5169 15.1843L44.4371 8.77852C44.9043 7.75336 44.5816 6.55108 43.6827 5.87192C36.8418 0.702352 27.504 -1.32712 17.7714 1.98896C9.96014 4.65016 3.86922 10.9487 1.38881 18.8193C-4.54447 37.6459 9.3511 54.952 27.2887 54.952C33.5315 54.952 39.2693 52.8407 43.8615 49.3076C44.729 48.6402 45.001 47.4486 44.5468 46.4521L41.6246 40.0418Z" fill="black"/>
<path d="M161.61 18.8195C159.129 10.9489 153.038 4.65037 145.227 1.98917C139.698 0.105431 134.298 -0.0515283 129.409 1.11043C121.255 2.93115 115.35 6.79692 110.159 17.9412L99.7438 40.5337L82.0649 1.67181C81.7118 0.8971 80.9396 0.399185 80.0884 0.39781L72.3651 0.385666C70.7801 0.383145 69.7245 2.02216 70.3824 3.46435L93.3108 53.5973C93.6641 54.3725 94.4374 54.8965 95.2891 54.8967L95.6642 54.9267H104.335C104.509 54.9267 104.684 54.8908 104.849 54.8344C105.446 54.6312 105.949 54.2054 106.21 53.6175C106.21 53.6175 117.689 27.4896 117.823 27.1746C121.316 18.9373 123.435 15.5064 128.98 13.15C133.174 11.3673 138.135 11.1503 142.931 13.3225C146.269 14.8346 148.895 17.5975 150.291 20.9856C151.175 23.106 151.62 25.286 151.694 27.4339C151.819 36.3685 144.616 43.6507 135.71 43.6507C131.493 43.6507 127.669 42.0096 124.817 39.3385C123.74 38.3299 121.986 38.6997 121.374 40.0422L118.451 46.4528C117.997 47.4491 118.269 48.6404 119.137 49.3081C123.729 52.8409 129.467 54.9524 135.71 54.9524C153.647 54.9522 167.543 37.6461 161.61 18.8195Z" fill="black"/>
</svg>
