<svg width="234" height="51" viewBox="0 0 234 51" fill="none" xmlns="http://www.w3.org/2000/svg">
<path d="M50.0059 25.5426C50.0059 33.4657 49.9914 41.3864 50.0276 49.3094C50.0325 50.2413 49.8152 50.5261 48.8399 50.5213C38.4641 50.4827 28.0883 50.4875 17.7101 50.5165C16.8386 50.5189 16.5248 50.3499 16.5513 49.406C16.6214 46.7939 16.6141 44.177 16.5538 41.565C16.5344 40.6935 16.8193 40.51 17.6377 40.5124C24.6362 40.5438 31.6346 40.5076 38.6307 40.5559C39.6615 40.5631 39.9657 40.3603 39.9609 39.2619C39.915 26.7955 39.9464 14.3291 39.9029 1.8627C39.8981 0.7836 40.1781 0.530118 41.2307 0.563916C43.8017 0.648409 46.3775 0.62666 48.951 0.571136C49.8056 0.551823 50.0228 0.814955 50.0204 1.65265C49.989 9.61435 50.0011 17.5761 50.0035 25.5402L50.0059 25.5426Z" fill="black"/>
<path d="M0.0218088 25.5021C0.0218088 17.6635 0.0411298 9.82496 9.01326e-05 1.98638C-0.00473807 0.941072 0.181139 0.55967 1.34956 0.564498C11.6409 0.615194 21.9322 0.600687 32.2259 0.571718C33.0853 0.569304 33.4257 0.726244 33.3992 1.68223C33.3292 4.29428 33.3364 6.90875 33.3992 9.5208C33.4209 10.4261 33.1674 10.6675 32.2597 10.6627C25.3047 10.624 18.3496 10.6723 11.3946 10.612C10.2455 10.6023 10.0476 10.962 10.05 12.0146C10.0862 24.4351 10.062 36.8556 10.0983 49.2786C10.1007 50.278 9.85687 50.558 8.85019 50.5267C6.27917 50.4494 3.7033 50.4567 1.13229 50.5267C0.210103 50.5508 -0.00232161 50.2804 0.00250659 49.3848C0.0387181 41.4255 0.0242252 33.4663 0.0242252 25.507L0.0218088 25.5021Z" fill="black"/>
<path d="M135.914 42.6951C138.319 37.92 140.67 33.3067 142.956 28.662C143.297 27.9691 143.666 27.7567 144.405 27.7687C147.058 27.8122 149.716 27.817 152.369 27.7687C153.173 27.7543 153.462 27.9016 153.457 28.7924C153.416 35.6701 153.421 42.5479 153.455 49.4257C153.46 50.2609 153.262 50.5361 152.4 50.4878C150.998 50.4106 149.58 50.3985 148.18 50.4903C147.198 50.5554 147.193 50.0654 147.195 49.3411C147.215 44.1219 147.207 38.9001 147.207 33.6326C147.079 33.6133 147.075 33.9826 146.961 34.1999C144.238 39.3444 141.51 44.4864 138.818 49.6477C138.497 50.2633 138.14 50.5434 137.433 50.483C136.675 50.4178 135.888 50.3599 135.144 50.4903C133.597 50.7606 132.935 49.9978 132.288 48.7014C129.816 43.7453 127.216 38.8519 124.66 33.9368C124.611 33.8426 124.515 33.775 124.433 33.6857C124.059 33.9343 124.232 34.2868 124.235 34.5693C124.285 39.4723 124.331 44.3777 124.438 49.2784C124.457 50.1957 124.261 50.553 123.272 50.4878C121.91 50.3985 120.536 50.442 119.17 50.4758C118.547 50.4927 118.226 50.3937 118.229 49.6429C118.255 42.6058 118.253 35.5663 118.241 28.5292C118.241 27.9498 118.424 27.7712 119.001 27.776C121.898 27.8001 124.792 27.8098 127.689 27.7712C128.324 27.7639 128.501 28.126 128.723 28.5654C130.915 32.9011 133.116 37.232 135.316 41.5653C135.477 41.8864 135.651 42.2002 135.914 42.6975V42.6951Z" fill="black"/>
<path d="M222.228 23.4403C218.689 23.4403 215.147 23.4113 211.611 23.462C210.754 23.4741 210.553 23.2303 210.556 22.395C210.59 15.5583 210.597 8.72155 210.551 1.88482C210.544 0.948151 210.829 0.774344 211.698 0.776758C218.696 0.810555 225.695 0.808114 232.693 0.779145C233.49 0.776731 233.859 0.907097 233.789 1.80997C233.705 2.88907 233.719 3.98266 233.784 5.06417C233.83 5.8222 233.589 5.9912 232.84 5.98396C227.935 5.95016 223.027 6.00568 218.119 5.95016C217.086 5.93809 216.859 6.23986 216.888 7.22481C216.963 9.77893 216.912 9.77892 219.483 9.77892C223.546 9.77892 227.609 9.80789 231.669 9.7572C232.587 9.74513 232.874 10.0059 232.794 10.9111C232.7 11.983 233.142 13.4194 232.601 14.0543C231.966 14.7978 230.491 14.2812 229.383 14.2909C225.562 14.3247 221.74 14.3223 217.921 14.2885C217.166 14.2812 216.89 14.4381 216.89 15.271C216.886 18.2596 216.849 18.2596 219.889 18.2596C224.193 18.2596 228.497 18.291 232.799 18.2331C233.779 18.221 234.062 18.518 233.989 19.4546C233.915 20.4541 233.917 21.468 233.989 22.4674C234.047 23.2906 233.736 23.4645 232.968 23.4572C229.388 23.4186 225.808 23.4403 222.23 23.4403H222.228Z" fill="black"/>
<path d="M72.0741 50.4638C69.8266 50.4638 67.5742 50.5604 65.3339 50.4421C61.2758 50.2297 59.3252 48.4674 58.7579 44.472C58.2654 41.003 58.2775 37.4953 58.6589 34.0214C59.0742 30.2385 60.752 28.4351 64.6532 27.9451C69.6431 27.3174 74.6886 27.3705 79.6809 27.9523C83.2538 28.37 84.5163 30.1226 84.724 34.1107C84.7803 35.2115 84.2645 35.7619 83.1765 35.7619C81.9309 35.7619 80.6828 35.7378 79.4395 35.774C78.8481 35.7909 78.5753 35.6461 78.5391 34.9967C78.4811 33.9562 77.8148 33.4444 76.8129 33.3261C73.566 32.9471 70.3166 32.9978 67.0769 33.3599C65.993 33.4806 65.2349 34.1228 65.0418 35.2719C64.6411 37.6667 64.6652 40.0784 64.9814 42.4683C65.1939 44.0689 65.9592 44.7496 67.6563 44.8921C70.6208 45.1431 73.6022 45.1069 76.5691 44.9114C77.9379 44.822 78.5922 44.1654 78.725 42.758C78.8046 41.9034 79.1643 41.8069 79.862 41.8262C81.267 41.8648 82.6768 41.8648 84.0818 41.8262C84.7216 41.8093 85.062 41.9445 85.004 42.676C84.9147 43.7961 84.9582 44.9283 84.8157 46.0388C84.5284 48.3056 83.0461 49.7444 80.6031 50.2007C77.781 50.727 74.9155 50.5194 72.0717 50.4614L72.0741 50.4638Z" fill="black"/>
<path d="M85.7078 0.798454C82.2943 3.99472 79.1318 6.95683 75.9717 9.91651C75.7376 10.1362 75.4986 10.351 75.2644 10.5707C73.7025 12.0482 73.7146 12.0361 75.3827 13.4773C78.999 16.6012 82.6032 19.7443 86.2172 22.8706C86.362 22.9961 86.5744 23.0395 86.7555 23.1216L86.5552 23.4379C83.6413 23.4379 80.7275 23.4379 77.8113 23.4379C77.2971 23.4379 77.0581 23.0106 76.7466 22.7257C74.108 20.3116 71.4477 17.9241 68.8791 15.4376C67.7807 14.3754 66.5471 14.8678 65.3618 14.834C64.8693 14.8195 65.0648 15.4062 65.0624 15.7272C65.0455 17.9386 65.0214 20.1499 65.0721 22.3612C65.0914 23.1602 64.9393 23.5055 64.0388 23.462C62.4745 23.3848 60.9029 23.4186 59.3362 23.4524C58.7616 23.4644 58.5781 23.2834 58.5781 22.7016C58.595 15.6259 58.5926 8.55011 58.5781 1.47438C58.5781 0.926384 58.7785 0.78396 59.2807 0.788788C60.9681 0.808101 62.658 0.827407 64.3454 0.781539C65.1083 0.759812 65.06 1.19678 65.0576 1.70374C65.0479 3.91506 65.0817 6.12637 65.0358 8.33768C65.0214 9.08364 65.2725 9.23331 65.9895 9.29849C67.549 9.43851 68.686 8.96052 69.7772 7.78968C71.8847 5.53008 74.1732 3.43705 76.3797 1.26919C76.6452 1.00847 76.8843 0.788791 77.2995 0.791205C79.984 0.805689 82.6685 0.798454 85.7054 0.798454H85.7078Z" fill="black"/>
<path d="M191.335 14.8848C191.335 12.4321 191.292 9.97693 191.357 7.5242C191.381 6.64547 191.094 6.46198 190.278 6.48129C187.905 6.5344 185.531 6.46923 183.158 6.5151C182.362 6.52958 181.995 6.37751 182.05 5.47947C182.128 4.19758 182.096 2.90604 182.062 1.61932C182.048 1.03028 182.161 0.776778 182.84 0.779192C190.642 0.803333 198.447 0.798505 206.249 0.779192C206.829 0.779192 207.015 0.945786 207 1.52517C206.964 2.89155 206.954 4.26034 207.002 5.62672C207.027 6.30991 206.817 6.51995 206.129 6.51029C203.635 6.47408 201.141 6.5296 198.647 6.47649C197.836 6.45959 197.641 6.70824 197.648 7.49523C197.684 12.4417 197.643 17.3906 197.689 22.3371C197.699 23.2352 197.493 23.52 196.571 23.4597C195.21 23.3704 193.831 23.3583 192.472 23.4621C191.444 23.5418 191.289 23.1338 191.308 22.2405C191.362 19.7878 191.328 17.3351 191.328 14.88H191.333L191.335 14.8848Z" fill="black"/>
<path d="M222.208 27.7831C225.745 27.7831 229.284 27.8242 232.818 27.7566C233.81 27.7372 234.047 28.0559 233.989 28.9733C233.914 30.1345 233.933 31.3053 233.984 32.4689C234.015 33.1956 233.796 33.4635 233.042 33.4394C231.437 33.3887 229.822 33.5118 228.221 33.3935C227.082 33.309 226.925 33.7411 226.937 34.743C226.988 39.605 226.937 44.4694 226.981 49.3314C226.988 50.2053 226.809 50.5408 225.865 50.4829C224.424 50.396 222.971 50.4129 221.527 50.4805C220.709 50.5191 220.525 50.2318 220.53 49.4593C220.561 44.5152 220.518 39.5712 220.571 34.6295C220.583 33.6059 220.272 33.3693 219.292 33.3959C216.682 33.4683 214.068 33.4008 211.455 33.437C210.784 33.4466 210.533 33.2655 210.562 32.5679C210.611 31.3246 210.627 30.0741 210.557 28.8309C210.512 28.0028 210.734 27.7445 211.6 27.759C215.137 27.8121 218.674 27.7807 222.21 27.7807L222.208 27.7831Z" fill="black"/>
<path fill-rule="evenodd" clip-rule="evenodd" d="M179.94 38.8617C181.7 39.3904 182.943 40.2281 183.177 41.9614C183.477 44.1679 183.638 46.3985 182.342 48.3757C181.104 50.2611 179.083 50.4349 177.089 50.4494C173.412 50.4753 169.735 50.4704 166.056 50.4654C164.586 50.4635 163.115 50.4615 161.644 50.4615C161.241 50.4615 160.839 50.4591 160.436 50.4567C159.43 50.4508 158.425 50.4449 157.421 50.4759C156.767 50.4977 156.506 50.3456 156.509 49.6237C156.533 42.6277 156.533 35.6292 156.509 28.6307C156.506 27.9307 156.724 27.7641 157.395 27.7665C162.276 27.7928 167.157 27.7986 172.038 27.8045C173.431 27.8062 174.824 27.8078 176.217 27.81C181.953 27.8196 182.793 30.9338 182.492 35.1561C182.378 36.747 181.787 38.1158 179.942 38.8569L179.94 38.8617ZM170.945 41.3186H170.945C172.295 41.3125 173.645 41.3064 174.993 41.3335C176.321 41.36 176.857 41.9611 176.884 43.2937C176.913 44.648 176.442 45.3119 175.097 45.336C172.52 45.3823 169.943 45.3811 167.365 45.3799H167.365C166.048 45.3792 164.731 45.3786 163.413 45.3843C162.957 45.3843 162.732 45.2395 162.768 44.7663C162.773 44.7028 162.772 44.6392 162.77 44.5757C162.769 44.5185 162.767 44.4614 162.771 44.4042C162.79 44.0724 162.75 43.7089 162.711 43.3483C162.632 42.6279 162.555 41.9191 162.952 41.4976C163.365 41.0596 164.101 41.1467 164.841 41.2343C165.182 41.2746 165.525 41.3151 165.837 41.3045C166.622 41.2774 167.409 41.2835 168.197 41.2896C168.534 41.2922 168.872 41.2948 169.209 41.2948V41.3238H169.212C169.789 41.3238 170.367 41.3212 170.945 41.3186ZM167.354 36.7985C167.835 36.8005 168.315 36.8025 168.796 36.8025V36.7904C169.323 36.7904 169.849 36.7918 170.376 36.7933C171.655 36.7967 172.933 36.8002 174.211 36.7831C175.114 36.7735 175.855 36.4886 176.099 35.4675C176.453 33.9731 175.691 32.9302 174.119 32.9133C172.154 32.893 170.188 32.8976 168.223 32.9022C167.38 32.9041 166.538 32.9061 165.696 32.9061C164.192 32.9061 163.445 32.9055 163.08 33.2784C162.712 33.6542 162.73 34.4092 162.751 35.9261C162.763 36.7348 163.077 36.829 163.746 36.8145C164.947 36.7887 166.151 36.7936 167.354 36.7985Z" fill="black"/>
<path fill-rule="evenodd" clip-rule="evenodd" d="M104.301 27.5779C103.518 27.5811 102.751 27.5842 102.008 27.5634L102.01 27.5658C101.309 27.5733 100.621 27.5736 99.9407 27.5739C97.7686 27.575 95.69 27.5761 93.6142 27.8096C89.9809 28.22 87.9917 29.8929 87.4606 33.461C86.8981 37.2463 86.9609 41.075 87.4655 44.8628C87.9386 48.4115 89.8168 50.1593 93.3293 50.4442C98.5776 50.8691 103.838 50.8715 109.089 50.4466C112.717 50.1545 114.764 48.2184 115.317 44.5828C115.862 40.993 115.809 37.3622 115.394 33.7772C114.935 29.8085 113.086 28.2031 109.139 27.7517C107.507 27.5647 105.872 27.5714 104.301 27.5779ZM102.155 33.1623C101.779 33.164 101.402 33.1656 101.026 33.1641C100.816 33.1634 100.606 33.1613 100.395 33.1592C99.8418 33.1536 99.2879 33.1479 98.7354 33.1689C97.9749 33.1979 97.2121 33.251 96.4541 33.3403C94.8004 33.5335 94.0183 34.1901 93.8058 35.7931C93.5161 37.9899 93.5161 40.2084 93.8155 42.4029C94.0376 44.0324 94.8076 44.7687 96.4178 44.9183C99.7034 45.2249 103.001 45.2032 106.284 44.9087C108.119 44.7446 108.761 44.0565 109.068 42.1711C109.406 40.095 109.35 37.9971 109.157 35.921C108.988 34.1104 108.276 33.5287 106.444 33.3162C105.016 33.1499 103.585 33.1561 102.155 33.1623Z" fill="black"/>
<path fill-rule="evenodd" clip-rule="evenodd" d="M145.831 14.7271C148.701 15.4452 149.017 17.385 149.005 19.5128C149.004 19.7617 149.001 20.0105 148.999 20.2594C148.991 21.0557 148.983 21.8517 149.019 22.6463C149.048 23.2981 148.797 23.4647 148.184 23.4526C146.538 23.4188 144.887 23.4188 143.24 23.4526C142.666 23.4647 142.463 23.3005 142.489 22.7139C142.53 21.8327 142.54 20.9419 142.477 20.0632C142.366 18.4964 141.777 17.8012 140.247 17.7674C138.121 17.7208 135.995 17.7266 133.869 17.7324C132.578 17.7359 131.287 17.7394 129.996 17.7312C129.328 17.7263 129.316 18.1102 129.32 18.5882C129.324 19.0558 129.322 19.5238 129.32 19.9919C129.316 20.8502 129.312 21.7089 129.342 22.5666C129.366 23.2208 129.219 23.4864 128.495 23.4598C126.928 23.4019 125.359 23.4115 123.792 23.4574C123.143 23.4767 122.981 23.257 122.983 22.6342C123.003 15.6406 123.003 8.6469 122.979 1.65325C122.976 0.955574 123.196 0.779349 123.869 0.781763C127.33 0.795082 130.789 0.796642 134.249 0.798203C137.06 0.799471 139.871 0.800739 142.682 0.808314C143.361 0.808314 144.044 0.909735 144.718 1.01837C147.177 1.40704 148.59 2.76858 149.024 5.22855C149.377 7.22259 149.384 9.2287 149.034 11.2252C148.742 12.8827 147.944 14.1473 145.831 14.7271ZM137.592 6.40579C136.876 6.41668 136.184 6.4272 135.535 6.39692V6.39934C134.97 6.39934 134.426 6.40116 133.899 6.40293C132.605 6.40727 131.407 6.4113 130.21 6.38729C129.543 6.3728 129.288 6.57074 129.317 7.27324C129.37 8.59617 129.372 9.92394 129.317 11.2469C129.285 11.9904 129.534 12.2077 130.268 12.2004C132.014 12.1818 133.762 12.183 135.509 12.1841C136.933 12.1851 138.357 12.186 139.782 12.1763C140.378 12.1715 140.979 12.0628 141.566 11.9397C142.106 11.8263 142.522 11.4883 142.645 10.9258C142.889 9.82012 142.918 8.70722 142.589 7.6088C142.365 6.85078 141.785 6.58765 141.042 6.50316C139.873 6.37105 138.702 6.38888 137.592 6.40579Z" fill="black"/>
<path fill-rule="evenodd" clip-rule="evenodd" d="M88.8149 23.4352C88.8141 23.4368 88.8133 23.4384 88.8125 23.44L88.8076 23.4352C88.8101 23.4352 88.8125 23.4352 88.8149 23.4352ZM88.8149 23.4352C89.2687 23.435 89.7 23.4176 90.114 23.4008C90.979 23.3657 91.7682 23.3338 92.5278 23.469C95.2533 23.9543 96.9335 22.9741 97.6384 20.2945C97.8291 19.5727 98.3192 19.3578 99.0772 19.3699C99.7472 19.3812 100.419 19.4009 101.09 19.4207C103.279 19.485 105.472 19.5494 107.633 19.324C110.472 19.0271 112.29 19.831 113.081 22.6265C113.26 23.2566 113.654 23.4787 114.332 23.457C116.06 23.4038 117.791 23.3966 119.517 23.4545C120.425 23.4859 120.415 23.2349 120.058 22.5324C116.514 15.558 112.987 8.57403 109.477 1.58038C109.19 1.00582 108.876 0.759594 108.2 0.774078C105.95 0.827189 103.698 0.829603 101.448 0.774078C100.716 0.754766 100.403 1.05167 100.094 1.65278C98.4717 4.80873 96.8329 7.95674 95.1941 11.1046C94.4424 12.5486 93.6906 13.9926 92.9406 15.4373C91.9963 17.2548 91.0591 19.0759 90.0841 20.9704C89.669 21.7769 89.2471 22.5967 88.8149 23.4352ZM100.582 14.3596C100.562 14.4203 100.54 14.4869 100.514 14.5613H109.142L104.743 5.77883L104.478 6.32101C103.165 9.00291 101.928 11.53 100.695 14.0592C100.652 14.148 100.621 14.2432 100.582 14.3596Z" fill="black"/>
<path fill-rule="evenodd" clip-rule="evenodd" d="M213.292 50.4577C213.881 50.4596 214.479 50.4615 215.089 50.4615H215.091C215.062 50.3599 215.041 50.2741 215.023 50.1996C214.991 50.0705 214.968 49.975 214.925 49.8893C213.756 47.5699 212.586 45.2513 211.417 42.9328C208.974 38.0913 206.532 33.2504 204.1 28.4038C203.839 27.8872 203.508 27.7665 202.97 27.7738C200.72 27.8027 198.47 27.822 196.22 27.7665C195.465 27.7496 195.095 28.008 194.757 28.6694C192.692 32.7146 190.6 36.7466 188.508 40.7792C187.903 41.9448 187.298 43.1105 186.694 44.2766C186.167 45.2923 185.641 46.3087 185.106 47.343C184.579 48.3613 184.043 49.3968 183.488 50.4663C183.925 50.4663 184.339 50.4669 184.738 50.4674C185.494 50.4685 186.196 50.4694 186.899 50.4663C187.274 50.4648 187.665 50.4964 188.056 50.5281C188.964 50.6015 189.873 50.6751 190.583 50.336C191.297 49.9931 191.609 49.1347 191.922 48.276C192.06 47.8951 192.199 47.5143 192.372 47.1783C192.674 46.5917 193.009 46.3913 193.664 46.401C195.399 46.4248 197.134 46.422 198.869 46.4191C199.946 46.4174 201.024 46.4156 202.101 46.4202C202.48 46.4216 202.873 46.3945 203.268 46.3674C204.252 46.2996 205.241 46.2316 206.014 46.6037C206.712 46.9383 207.035 47.8159 207.357 48.6916C207.495 49.0669 207.633 49.4418 207.801 49.7735C208.042 50.2539 208.332 50.4856 208.911 50.4759C210.351 50.4482 211.793 50.4529 213.292 50.4577ZM199.436 32.7849C197.946 35.8243 196.565 38.6392 195.093 41.6399H195.09C195.842 41.6399 196.573 41.6402 197.29 41.6404C198.682 41.641 200.021 41.6415 201.36 41.6399C203.046 41.6351 203.515 40.8834 202.765 39.3851C201.983 37.8215 201.193 36.2604 200.359 34.6122C200.058 34.0159 199.751 33.4083 199.436 32.7849Z" fill="black"/>
<path fill-rule="evenodd" clip-rule="evenodd" d="M182.099 23.4355C182.674 23.4367 183.253 23.438 183.838 23.438C183.818 23.3316 183.807 23.2546 183.799 23.196C183.787 23.1111 183.781 23.0652 183.761 23.0252C182.811 21.1383 181.862 19.252 180.912 17.3658C178.236 12.0505 175.56 6.73571 172.9 1.41171C172.629 0.870951 172.284 0.791301 171.77 0.793716C171.354 0.796956 170.937 0.80144 170.521 0.805924C168.766 0.824822 167.012 0.843724 165.261 0.76958C164.255 0.726127 163.779 1.12202 163.352 1.95972C161.687 5.22816 159.997 8.48501 158.307 11.7423C157.56 13.1837 156.812 14.6251 156.066 16.0677C155.157 17.8254 154.255 19.5857 153.322 21.4052C152.979 22.0746 152.632 22.7521 152.278 23.4404C152.845 23.4404 153.392 23.4283 153.925 23.4165C155.092 23.3907 156.19 23.3664 157.275 23.4742C158.939 23.6407 160.032 23.2231 160.489 21.5067C160.573 21.1929 160.744 20.9038 160.917 20.6131C161.035 20.414 161.153 20.2141 161.244 20.0051C161.452 19.5319 161.756 19.3799 162.27 19.3823C166.208 19.4016 170.148 19.4016 174.085 19.3823C174.638 19.3799 174.978 19.544 175.217 20.0534C175.462 20.5755 175.726 21.0894 175.989 21.6033C176.201 22.0163 176.413 22.4292 176.615 22.8465C176.808 23.2448 177.035 23.4573 177.525 23.45C179.04 23.4289 180.554 23.4322 182.099 23.4355ZM163.885 14.5686H172.595C171.35 12.072 170.148 9.65917 168.883 7.11964C168.66 6.67061 168.434 6.21762 168.206 5.75951C167.757 6.67544 167.319 7.5681 166.888 8.44688C165.868 10.5236 164.887 12.5228 163.885 14.5686Z" fill="black"/>
</svg>
