<svg width="90" height="83" viewBox="0 0 90 83" fill="none" xmlns="http://www.w3.org/2000/svg">
<path d="M42.8212 20.273C42.177 20.9698 41.5599 21.632 40.9473 22.2971C40.2475 23.0584 39.5523 23.8243 38.8511 24.584C38.1499 25.3453 37.4426 26.0991 36.7414 26.8604C36.0402 27.6202 35.3449 28.386 34.6437 29.1473C34.0821 29.7569 33.5145 30.3635 32.9514 30.9732C32.3733 31.5978 31.7952 32.221 31.2246 32.8531C31.1195 32.9702 31.0445 33.0123 30.8733 32.9642C29.5459 32.5964 28.211 32.254 26.8852 31.8846C26.6719 31.8261 26.5338 31.8471 26.3642 31.9897C24.8491 33.2661 23.3234 34.5289 21.8084 35.8052C21.6462 35.9418 21.5051 35.9869 21.2904 35.9463C18.5725 35.4373 15.8517 34.9433 13.1338 34.4343C12.8666 34.3847 12.6714 34.4283 12.4792 34.6205C12.0272 35.0694 11.5617 35.5034 11.0993 35.9403C10.1518 36.8368 9.2013 37.7302 8.25382 38.6266C7.59613 39.2498 6.94143 39.8744 6.28375 40.4976C6.09155 40.6808 5.89335 40.8564 5.6531 41.0772C5.51045 35.3487 6.49998 29.8875 8.72679 24.6696C11.8846 17.2669 16.8443 11.3493 23.5923 6.96772C36.9592 -1.7113 54.2706 -1.36594 67.2291 7.60588C73.7639 12.1301 78.5253 18.1078 81.4729 25.4985C83.7898 31.308 84.6007 37.3428 84.0556 43.5833C83.8154 43.5592 83.6562 43.4196 83.4835 43.3235C81.8693 42.4376 80.2597 41.5457 78.65 40.6522C76.8046 39.6282 74.9621 38.5996 73.1167 37.5755C71.7893 36.8383 70.459 36.107 69.1301 35.3727C68.9319 35.2631 68.7321 35.1565 68.5384 35.0409C68.4153 34.9673 68.3147 34.9778 68.1871 35.0499C67.0609 35.6836 65.9288 36.3067 64.7981 36.9329C64.741 36.9644 64.678 36.9839 64.6254 37.0215C64.5113 37.104 64.4257 37.0935 64.3161 36.9944C63.9948 36.7076 63.6599 36.4374 63.3311 36.1596C61.9196 34.9598 60.5096 33.7616 59.0996 32.5603C58.6236 32.1564 58.1462 31.754 57.6777 31.3411C57.5561 31.2345 57.4329 31.1879 57.2707 31.1879C55.9103 31.1924 54.5484 31.1759 53.188 31.1984C52.736 31.2059 52.2825 31.2119 51.8306 31.2344C51.6008 31.245 51.4552 31.1654 51.3156 30.9882C50.1188 29.4641 48.916 27.9445 47.7133 26.4249C46.1502 24.4504 44.5856 22.4758 43.0225 20.5028C42.9639 20.4277 42.8993 20.3571 42.8242 20.2685L42.8212 20.273Z" fill="#241F21"/>
<path d="M42.4671 24.8828C43.2719 25.8934 44.0513 26.8679 44.8276 27.8469C45.8847 29.1788 46.9403 30.5137 47.9974 31.8471C48.559 32.5558 49.128 33.2585 49.6746 33.9793C49.8308 34.185 49.9944 34.2541 50.2437 34.2466C52.1327 34.191 54.0231 34.2301 55.9121 34.2105C56.1493 34.2075 56.3145 34.2871 56.4872 34.4343C58.1659 35.8653 59.8522 37.2902 61.5355 38.7167C62.2667 39.3369 62.9995 39.9525 63.7232 40.5801C63.8584 40.6973 63.9454 40.7213 64.1121 40.6282C65.3974 39.9045 66.6933 39.1987 67.9816 38.478C68.1378 38.3909 68.2489 38.4179 68.3931 38.4975C69.9262 39.3519 71.4652 40.1972 72.9998 41.0471C74.5644 41.9135 76.1261 42.7814 77.6893 43.6493C79.2434 44.5112 80.7975 45.3731 82.3516 46.2335C84.2255 47.2711 86.101 48.3072 87.975 49.3463C88.6056 49.6946 89.2332 50.0475 89.8504 50.4289C85.643 49.124 81.4506 47.7756 77.1787 46.4047C78.7778 49.0745 80.3395 51.6842 81.9026 54.2939C81.8906 54.3074 81.8801 54.3194 81.868 54.3329C81.5978 54.1498 81.3245 53.9681 81.0572 53.7804C79.1998 52.486 77.3439 51.1917 75.488 49.8958C73.3497 48.4018 71.213 46.9062 69.0748 45.4122C68.3766 44.9242 67.6738 44.4437 66.9831 43.9482C66.8359 43.843 66.7218 43.8536 66.5702 43.9136C65.3299 44.4076 64.0866 44.8941 62.8493 45.3927C62.6721 45.4632 62.5776 45.4602 62.4424 45.3011C61.6406 44.3581 60.8222 43.4286 60.0113 42.4931C59.4332 41.8264 58.8597 41.1567 58.2861 40.487C58.19 40.3744 58.0743 40.3099 57.9332 40.2753C56.1223 39.8414 54.3115 39.4074 52.5006 38.972C51.3279 38.6897 50.1566 38.4044 48.9824 38.1296C48.8217 38.0921 48.7151 37.9899 48.604 37.8938C47.7631 37.1701 46.9313 36.4373 46.0919 35.7121C44.5363 34.3682 42.9777 33.0258 41.4206 31.6834C41.332 31.6068 41.2659 31.5002 41.0902 31.4477C42.2569 33.739 43.4416 35.9764 44.5603 38.2737C43.9326 37.8428 43.3065 37.4119 42.6293 36.9479C42.7734 37.4239 42.9026 37.8428 43.0302 38.2632C43.2089 38.8504 43.3921 39.4345 43.5603 40.0246C43.6173 40.2243 43.7195 40.3549 43.8981 40.4645C46.9448 42.3595 49.9869 44.2605 53.0291 46.1599C53.0726 46.187 53.1177 46.2155 53.1417 46.3011C50.9494 45.759 48.7587 45.217 46.5664 44.6734C46.5559 44.6884 46.5453 44.7019 46.5348 44.7169C48.4553 46.9348 50.3744 49.1541 52.2949 51.3719C52.2828 51.3869 52.2708 51.4004 52.2603 51.4154C52.0486 51.2953 51.8353 51.1797 51.6266 51.055C49.8503 49.9979 48.0739 48.9363 46.2961 47.8792C45.0468 47.136 43.7915 46.4032 42.5482 45.6479C42.2794 45.4842 42.0001 45.4662 41.7163 45.4557C40.5857 45.4152 39.4535 45.4062 38.3228 45.3536C37.7732 45.3281 37.2237 45.3281 36.6756 45.2981C36.563 45.292 36.4729 45.2575 36.3798 45.1944C34.0839 43.6418 31.7865 42.0922 29.4906 40.5426C28.7864 40.0666 28.0837 39.5876 27.3089 39.0606C27.5612 40.005 27.8614 40.8564 28.1272 41.7183C28.396 42.5877 28.6768 43.4526 28.9711 44.3761C26.5341 43.795 24.1511 43.2274 21.7591 42.6583C21.7305 42.7484 21.7951 42.7799 21.8327 42.819C22.4003 43.4106 22.9724 43.9977 23.537 44.5908C24.5115 45.6134 25.4785 46.642 26.453 47.666C27.0101 48.2516 27.5762 48.8312 28.1348 49.4153C28.6918 49.9994 29.2459 50.5881 29.806 51.1797C29.7144 51.2517 29.6528 51.1902 29.5898 51.1661C25.9335 49.8222 22.2772 48.4768 18.6224 47.1315C16.6328 46.3987 14.6447 45.6644 12.6581 44.9242C12.4734 44.8551 12.3173 44.8581 12.1356 44.9377C8.73155 46.4197 5.326 47.8973 1.91896 49.3748C1.28981 49.6481 0.659185 49.9169 0 50.1466C0.177184 49.9904 0.355841 49.8358 0.533025 49.6796C1.4745 48.8567 2.39346 48.0114 3.31091 47.163C4.38603 46.1675 5.47016 45.1824 6.54378 44.1854C7.16843 43.6058 7.77958 43.0127 8.39972 42.4286C9.2481 41.6312 10.0994 40.8384 10.9478 40.0396C11.4028 39.6116 11.8533 39.1762 12.3068 38.7452C12.6747 38.3969 13.0456 38.0515 13.4104 37.7017C13.487 37.6296 13.5576 37.6011 13.6687 37.6221C15.2138 37.9104 16.7589 38.1927 18.304 38.478C19.5218 38.7017 20.7395 38.9254 21.9558 39.1522C22.1255 39.1837 22.2531 39.1537 22.3958 39.035C23.8718 37.7963 25.3599 36.571 26.8344 35.3322C27.0386 35.161 27.2203 35.1295 27.477 35.2016C28.8675 35.589 30.264 35.9523 31.6544 36.3352C31.8046 36.3773 31.8946 36.3458 31.9907 36.2391C32.6709 35.4899 33.3542 34.7421 34.0389 33.9973C34.5929 33.3937 35.153 32.7961 35.7086 32.1939C36.3077 31.5453 36.9024 30.8921 37.5015 30.2419C38.0646 29.6323 38.6307 29.0256 39.1937 28.416C39.7854 27.7748 40.371 27.1292 40.9641 26.488C41.4536 25.958 41.9476 25.4324 42.4656 24.8768L42.4671 24.8828Z" fill="#241F21"/>
<path d="M9.14464 61.9504C9.14464 62.0585 9.14464 62.1621 9.14464 62.2642C9.14464 64.2087 9.14464 66.1517 9.14464 68.0962C9.14464 68.1608 9.14464 68.2254 9.14464 68.29C9.14764 68.3725 9.10409 68.4026 9.02601 68.4026C8.57254 68.4026 8.11906 68.3996 7.66558 68.4026C7.54846 68.4026 7.51393 68.35 7.52144 68.2449C7.52595 68.1803 7.52144 68.1158 7.52144 68.0512C7.52144 65.2538 7.52144 62.4564 7.52144 59.659C7.52144 59.2776 7.46137 59.3016 7.88932 59.3001C8.22416 59.3001 8.56054 59.3151 8.89389 59.2941C9.11912 59.2791 9.24975 59.3692 9.37288 59.5434C10.1327 60.6155 10.8999 61.6816 11.6672 62.7477C12.3339 63.6741 13.0022 64.5991 13.6704 65.5256C13.6884 65.5511 13.7064 65.5781 13.7244 65.6052C13.825 65.5241 13.7844 65.4325 13.7844 65.3559C13.7874 63.4759 13.7875 61.5975 13.7875 59.7175C13.7875 59.6305 13.7905 59.5449 13.7875 59.4578C13.7829 59.3557 13.813 59.2986 13.9301 59.3001C14.3731 59.3046 14.8161 59.3031 15.259 59.3001C15.3686 59.3001 15.4167 59.3467 15.4106 59.4548C15.4076 59.5193 15.4106 59.5839 15.4106 59.6485C15.4106 62.4459 15.4106 65.2433 15.4106 68.0407C15.4106 68.4476 15.4677 68.3981 15.0503 68.4011C14.7365 68.4026 14.4226 68.3891 14.1103 68.4071C13.9166 68.4176 13.798 68.356 13.6854 68.1969C12.6268 66.7028 11.5606 65.2148 10.496 63.7252C10.0951 63.1651 9.69571 62.6035 9.29479 62.0435C9.26626 62.0029 9.2437 61.9489 9.1461 61.9474L9.14464 61.9504Z" fill="#241F21"/>
<path d="M18.1313 63.8318C18.1313 62.4489 18.1313 61.066 18.1313 59.683C18.1313 59.608 18.1343 59.5314 18.1313 59.4563C18.1253 59.3512 18.1583 59.2911 18.2769 59.3016C18.3414 59.3077 18.406 59.3016 18.4706 59.3016C20.328 59.3016 22.187 59.3016 24.0444 59.3016C24.0985 59.3016 24.1525 59.3062 24.2066 59.3016C24.3267 59.2926 24.3822 59.3317 24.3792 59.4653C24.3717 59.8212 24.3702 60.1786 24.3792 60.5344C24.3837 60.6981 24.3162 60.7326 24.1675 60.7311C23.6164 60.7236 23.0654 60.7281 22.5143 60.7281C21.6719 60.7281 20.8296 60.7281 19.9872 60.7281C19.7589 60.7281 19.7544 60.7326 19.7529 60.9564C19.7499 61.5825 19.7499 62.2102 19.7529 62.8363C19.7529 63.0556 19.7589 63.0601 19.9947 63.0601C21.2905 63.0616 22.5879 63.0601 23.8838 63.0601C23.9588 63.0601 24.0354 63.0646 24.1105 63.0601C24.2561 63.048 24.2937 63.1186 24.2907 63.2537C24.2847 63.5781 24.2907 63.9024 24.2877 64.2253C24.2862 64.482 24.2831 64.485 24.0143 64.485C22.75 64.485 21.4872 64.485 20.2229 64.485C20.1148 64.485 20.0067 64.491 19.8986 64.485C19.7845 64.479 19.7499 64.5301 19.7499 64.6382C19.7529 65.3725 19.7529 66.1067 19.7499 66.8425C19.7499 66.9386 19.7875 66.9791 19.8836 66.9746C19.9587 66.9716 20.0352 66.9746 20.1103 66.9746C21.4497 66.9746 22.7891 66.9746 24.1285 66.9746C24.3808 66.9746 24.3763 66.9611 24.3748 67.2209C24.3733 67.5557 24.3673 67.8906 24.3778 68.2254C24.3823 68.3726 24.3267 68.4191 24.1915 68.4041C24.1375 68.3981 24.0834 68.4041 24.0294 68.4041C22.1719 68.4041 20.313 68.4041 18.4556 68.4041C18.391 68.4041 18.3265 68.4011 18.2619 68.4041C18.1658 68.4086 18.1252 68.3666 18.1297 68.2705C18.1327 68.2059 18.1297 68.1413 18.1297 68.0768C18.1297 66.6623 18.1297 65.2463 18.1297 63.8318H18.1313Z" fill="#241F21"/>
<path d="M80.8993 77.927C80.8993 76.5126 80.8993 75.0966 80.8993 73.6821C80.8993 73.3908 80.8693 73.3953 81.1756 73.3953C83.0661 73.3953 84.9565 73.3953 86.847 73.3953C87.1398 73.3953 87.1233 73.3653 87.1233 73.6761C87.1233 73.9779 87.1218 74.2812 87.1233 74.5831C87.1263 74.8473 87.1233 74.8218 86.871 74.8218C85.5422 74.8218 84.2132 74.8218 82.8844 74.8218C82.4744 74.8218 82.5225 74.7753 82.521 75.1822C82.5195 75.7438 82.521 76.3053 82.521 76.8669C82.521 77.1808 82.494 77.1537 82.8259 77.1537C84.1007 77.1537 85.3755 77.1522 86.6503 77.1537C87.1023 77.1537 87.0302 77.0967 87.0362 77.5546C87.0392 77.8144 87.0272 78.0742 87.0407 78.3325C87.0482 78.5021 86.9896 78.5592 86.8199 78.5562C86.3229 78.5487 85.826 78.5532 85.3289 78.5532C84.4761 78.5532 83.6216 78.5532 82.7687 78.5532C82.5255 78.5532 82.5225 78.5592 82.521 78.8069C82.5195 79.4766 82.5195 80.1463 82.521 80.816C82.521 81.0758 82.5255 81.0803 82.7913 81.0803C84.0872 81.0803 85.3845 81.0803 86.6803 81.0803C86.7344 81.0803 86.7885 81.0803 86.8425 81.0803C87.1458 81.0803 87.1218 81.0608 87.1218 81.3596C87.1218 81.6734 87.1173 81.9858 87.1233 82.2996C87.1248 82.4212 87.0933 82.4858 86.9596 82.4678C86.9071 82.4617 86.8515 82.4678 86.7974 82.4678C84.94 82.4678 83.0811 82.4678 81.2236 82.4678C81.1591 82.4678 81.0946 82.4648 81.03 82.4678C80.9339 82.4708 80.8933 82.4257 80.8978 82.3311C80.9008 82.256 80.8978 82.1794 80.8978 82.1044C80.8978 80.7109 80.8978 79.3175 80.8978 77.924L80.8993 77.927Z" fill="#241F21"/>
<path d="M39.198 77.9269C39.198 76.5439 39.198 75.161 39.198 73.7781C39.198 73.703 39.201 73.6264 39.198 73.5513C39.192 73.4477 39.2235 73.3861 39.3406 73.3952C39.4052 73.3997 39.4698 73.3952 39.5343 73.3952C41.3918 73.3952 43.2507 73.3952 45.1081 73.3952C45.1411 73.3952 45.1727 73.3952 45.2057 73.3952C45.437 73.3997 45.44 73.3997 45.443 73.6174C45.446 73.9417 45.4445 74.2661 45.443 74.5889C45.4415 74.8156 45.4385 74.8201 45.2178 74.8201C44.5811 74.8216 43.9429 74.8201 43.3062 74.8201C42.5494 74.8201 41.7942 74.8246 41.0374 74.8171C40.8707 74.8156 40.8137 74.8592 40.8167 75.0319C40.8257 75.6685 40.8257 76.3067 40.8167 76.9433C40.8137 77.119 40.8737 77.1566 41.0374 77.1566C42.3557 77.1506 43.6726 77.1521 44.991 77.1536C45.4099 77.1536 45.3544 77.1025 45.3574 77.5079C45.3604 77.7992 45.3544 78.092 45.3604 78.3833C45.3634 78.5095 45.3108 78.559 45.1892 78.5545C45.0811 78.55 44.973 78.5545 44.8649 78.5545C43.6006 78.5545 42.3378 78.5545 41.0734 78.5545C40.8257 78.5545 40.8227 78.5575 40.8212 78.7963C40.8197 79.4765 40.8197 80.1567 40.8212 80.8384C40.8212 81.0771 40.8272 81.0816 41.0765 81.0816C42.4158 81.0816 43.7552 81.0816 45.0946 81.0831C45.4895 81.0831 45.44 81.0366 45.443 81.4225C45.4445 81.6703 45.4445 81.9195 45.443 82.1673C45.44 82.5141 45.482 82.4646 45.1261 82.4706C45.1156 82.4706 45.1051 82.4706 45.0931 82.4706C43.2462 82.4706 41.3992 82.4706 39.5523 82.4706C39.4772 82.4706 39.4007 82.4676 39.3256 82.4706C39.225 82.4751 39.1935 82.424 39.198 82.3324C39.2025 82.2574 39.198 82.1808 39.198 82.1057C39.198 80.7123 39.198 79.3188 39.198 77.9254V77.9269Z" fill="#241F21"/>
<path d="M65.6448 63.8303C65.6448 62.4488 65.6448 61.0659 65.6448 59.6844C65.6448 59.6094 65.6493 59.5328 65.6448 59.4577C65.6387 59.3511 65.6733 59.294 65.7904 59.3031C65.855 59.3076 65.9196 59.3031 65.9841 59.3031C67.819 59.3031 69.6554 59.3031 71.4904 59.3031C71.5339 59.3031 71.5774 59.3031 71.6195 59.3031C71.8627 59.3091 71.8643 59.309 71.8673 59.5553C71.8703 59.8571 71.8688 60.1604 71.8673 60.4623C71.8658 60.725 71.8643 60.7295 71.6015 60.7295C70.4348 60.7295 69.2695 60.7295 68.1028 60.7295C67.8656 60.7295 67.6283 60.7325 67.3896 60.7295C67.2665 60.728 67.2199 60.7761 67.2199 60.9022C67.2244 61.5614 67.2259 62.2191 67.2184 62.8783C67.2154 63.0569 67.3115 63.0644 67.4422 63.0644C67.9932 63.0629 68.5428 63.0644 69.0939 63.0644C69.9032 63.0644 70.7141 63.0644 71.5234 63.0644C71.7547 63.0644 71.7576 63.069 71.7591 63.2897C71.7621 63.614 71.7621 63.9369 71.7591 64.2612C71.7576 64.4849 71.7531 64.4894 71.5219 64.4894C70.2591 64.4909 68.9948 64.4894 67.732 64.4894C67.6674 64.4894 67.6028 64.4894 67.5383 64.4894C67.2244 64.4924 67.2229 64.4924 67.2229 64.8048C67.2229 65.4519 67.2214 66.1006 67.2229 66.7478C67.2229 66.9715 67.2274 66.976 67.4556 66.9775C68.795 66.979 70.1329 66.9775 71.4723 66.9775C71.5474 66.9775 71.624 66.982 71.6991 66.9775C71.8207 66.9685 71.8733 67.0136 71.8703 67.1427C71.8643 67.5091 71.8628 67.8769 71.8703 68.2433C71.8733 68.3785 71.8147 68.41 71.6975 68.407C71.5354 68.4025 71.3733 68.407 71.2111 68.407C69.4723 68.407 67.735 68.407 65.9962 68.407C65.9211 68.407 65.8445 68.404 65.7694 68.407C65.6688 68.4115 65.6373 68.362 65.6433 68.2689C65.6478 68.2043 65.6433 68.1397 65.6433 68.0752C65.6433 66.6607 65.6433 65.2462 65.6433 63.8317L65.6448 63.8303Z" fill="#241F21"/>
<path d="M70.0254 73.3953C70.5614 73.3953 71.111 73.4013 71.6605 73.3908C71.8062 73.3878 71.8392 73.4689 71.8783 73.5755C72.057 74.0605 72.2402 74.5425 72.4219 75.026C73.0135 76.6087 73.6051 78.1913 74.1952 79.7755C74.2988 80.0533 74.4009 80.3311 74.518 80.6449C74.6757 80.4031 74.7313 80.1629 74.8153 79.9361C75.5931 77.8595 76.3664 75.7813 77.1398 73.7032C77.1623 73.6431 77.1893 73.583 77.2103 73.523C77.2418 73.4314 77.2959 73.3908 77.401 73.3923C77.9521 73.3983 78.5016 73.3953 79.0647 73.3953C79.0692 73.5995 78.9672 73.7572 78.9041 73.9209C78.2869 75.5065 77.6623 77.0877 77.0406 78.6703C76.5721 79.8626 76.1021 81.0533 75.6427 82.2485C75.5796 82.4122 75.5046 82.4813 75.3184 82.4753C74.8003 82.4603 74.2807 82.4633 73.7627 82.4753C73.587 82.4798 73.4969 82.4332 73.4309 82.2591C72.8287 80.7034 72.2177 79.1508 71.608 77.5967C71.093 76.2828 70.578 74.9705 70.0629 73.6566C70.0329 73.5785 69.9668 73.508 70.0254 73.3938V73.3953Z" fill="#241F21"/>
<path d="M54.4931 79.879C54.891 80.0847 55.2889 80.2979 55.6959 80.4946C55.8505 80.5682 55.8491 80.6403 55.7635 80.7634C55.1223 81.6808 54.2919 82.325 53.1747 82.5472C51.8278 82.816 50.5575 82.6193 49.4073 81.8475C48.3082 81.1088 47.7 80.0502 47.4973 78.7543C47.3562 77.8549 47.4253 76.9705 47.7601 76.1221C48.3532 74.6145 49.4584 73.6805 51.0335 73.3412C51.972 73.1385 52.918 73.167 53.8324 73.5214C54.6673 73.8442 55.2919 74.4163 55.7844 75.1461C55.852 75.2467 55.831 75.3127 55.7124 75.3698C55.364 75.5395 55.0187 75.7166 54.6778 75.9028C54.5322 75.9824 54.4496 75.9719 54.3475 75.8248C53.9616 75.2752 53.4375 74.9163 52.7828 74.7542C51.5185 74.4388 50.1491 75.056 49.5184 76.2167C49.2346 76.7392 49.074 77.3038 49.0815 77.8879C49.0995 79.1372 49.5485 80.1898 50.6837 80.8325C51.7813 81.4541 53.0757 81.3265 54.0337 80.4436C54.2048 80.2859 54.3325 80.0802 54.4901 79.8835L54.4931 79.879Z" fill="#241F21"/>
<path d="M1.79102 78.0471C1.80603 76.6867 2.1574 75.5875 2.99527 74.6836C3.82263 73.7916 4.86321 73.3142 6.07648 73.2436C6.81224 73.2 7.54048 73.2421 8.2372 73.5349C9.04054 73.8727 9.64866 74.4328 10.1397 75.137C10.2298 75.2662 10.1802 75.3187 10.0601 75.3773C9.71176 75.5485 9.36638 75.7242 9.02703 75.9119C8.88438 75.9914 8.80328 75.9749 8.71469 75.8368C8.47744 75.4659 8.15162 75.1851 7.75671 74.9914C6.63505 74.4433 5.57946 74.586 4.60945 75.3383C3.93825 75.8593 3.60791 76.5861 3.48478 77.4149C3.35715 78.2678 3.5118 79.0711 3.96377 79.7994C4.45778 80.5952 5.18305 81.0622 6.12153 81.1733C7.21316 81.301 8.08555 80.9211 8.72371 80.0246C8.8093 79.9045 8.87689 79.8745 9.01053 79.9481C9.36039 80.1403 9.71323 80.3234 10.0706 80.4991C10.1982 80.5622 10.2238 80.6102 10.1367 80.7379C9.33483 81.9046 8.24923 82.5653 6.81974 82.6434C5.89478 82.6944 5.02088 82.5382 4.19952 82.1028C2.88866 81.4091 2.14539 80.3069 1.87361 78.8684C1.81355 78.5516 1.78201 78.2288 1.79402 78.0456L1.79102 78.0471Z" fill="#241F21"/>
<path d="M60.7186 64.5826C60.7186 65.7598 60.7186 66.937 60.7186 68.1142C60.7186 68.4251 60.7516 68.4056 60.4182 68.4056C60.0519 68.4056 59.684 68.3995 59.3176 68.4086C59.1569 68.4131 59.0818 68.3785 59.0954 68.1983C59.1104 67.9731 59.0998 67.7449 59.0998 67.5181C59.0998 65.4129 59.0998 63.3063 59.0998 61.2011C59.0998 61.126 59.0998 61.0494 59.0998 60.9743C59.0938 60.7356 59.0939 60.7311 58.8416 60.7311C58.1073 60.7296 57.373 60.7311 56.6387 60.7311C56.382 60.7311 56.379 60.7281 56.3775 60.4623C56.376 60.1274 56.379 59.7926 56.376 59.4578C56.376 59.3496 56.409 59.2941 56.5231 59.3046C56.5772 59.3091 56.6313 59.3046 56.6853 59.3046C58.834 59.3046 60.9828 59.3046 63.1315 59.3046C63.1751 59.3046 63.2186 59.3091 63.2606 59.3046C63.4093 59.2866 63.4739 59.3346 63.4678 59.4983C63.4558 59.8436 63.4573 60.189 63.4678 60.5344C63.4723 60.695 63.4093 60.7341 63.2592 60.7341C62.579 60.7281 61.8987 60.7311 61.2185 60.7311C61.1434 60.7311 61.0669 60.7311 60.9918 60.7311C60.7095 60.7311 60.7216 60.7131 60.7216 60.9878C60.7216 61.4083 60.7216 61.8302 60.7216 62.2507C60.7216 63.0285 60.7216 63.8063 60.7216 64.5826H60.7186Z" fill="#241F21"/>
<path d="M60.0924 78.6447C60.0924 77.4675 60.0924 76.2903 60.0924 75.1131C60.0924 74.7842 60.1119 74.8233 59.792 74.8233C59.0578 74.8233 58.3235 74.8233 57.5893 74.8233C57.3385 74.8233 57.346 74.8368 57.3475 74.574C57.349 74.2722 57.3475 73.9689 57.3475 73.6671C57.3475 73.3592 57.3325 73.3968 57.6344 73.3968C58.4767 73.3968 59.319 73.3968 60.1614 73.3968C61.4798 73.3968 62.7967 73.3968 64.115 73.3968C64.4769 73.3968 64.4319 73.3457 64.4349 73.7301C64.4379 74.0109 64.4349 74.2917 64.4349 74.5725C64.4364 74.8338 64.4454 74.8233 64.1947 74.8233C63.5355 74.8233 62.8763 74.8188 62.2186 74.8248C62.0504 74.8263 61.8372 74.7452 61.7231 74.8698C61.6255 74.9764 61.693 75.1791 61.693 75.3398C61.6915 77.5966 61.693 79.855 61.693 82.1118C61.693 82.1869 61.69 82.2635 61.693 82.3386C61.6975 82.4362 61.6495 82.4722 61.5564 82.4722C61.1134 82.4707 60.6705 82.4707 60.2276 82.4722C60.1345 82.4722 60.0879 82.4362 60.0924 82.3386C60.0954 82.2635 60.0924 82.1869 60.0924 82.1118C60.0924 80.9556 60.0924 79.8009 60.0924 78.6447Z" fill="#241F21"/>
<path d="M44.7944 63.8648C44.7944 62.4398 44.7944 61.0148 44.7944 59.5898C44.7944 59.303 44.7959 59.3016 45.0692 59.3016C45.4581 59.3016 45.847 59.3076 46.2344 59.3001C46.3771 59.297 46.4221 59.3481 46.4176 59.4862C46.4086 59.734 46.4146 59.9833 46.4146 60.231C46.4146 62.3362 46.4146 64.4414 46.4146 66.5466C46.4146 66.6112 46.4146 66.6757 46.4146 66.7403C46.4191 66.97 46.4192 66.9745 46.6414 66.976C47.0618 66.979 47.4837 66.976 47.9042 66.976C48.67 66.976 49.4373 66.976 50.2031 66.976C50.4283 66.976 50.4313 66.9805 50.4328 67.2043C50.4358 67.5496 50.4298 67.895 50.4358 68.2403C50.4388 68.368 50.3923 68.407 50.2677 68.4055C49.8142 68.3995 49.3607 68.4025 48.9072 68.4025C47.6234 68.4025 46.338 68.4025 45.0542 68.4025C44.7959 68.4025 44.793 68.3995 44.793 68.1382C44.793 66.7133 44.793 65.2883 44.793 63.8633L44.7944 63.8648Z" fill="#241F21"/>
<path d="M23.5127 77.939C23.5127 76.5126 23.5127 75.0876 23.5127 73.6611C23.5127 73.3773 23.4962 73.3953 23.7725 73.3953C24.1509 73.3953 24.5293 73.3938 24.9062 73.3953C25.1269 73.3968 25.1314 73.4013 25.1314 73.6326C25.1329 74.5185 25.1314 75.4044 25.1314 76.2903C25.1314 77.7589 25.1314 79.2289 25.1314 80.6974C25.1314 80.7725 25.1344 80.8491 25.1314 80.9241C25.1269 81.0278 25.163 81.0893 25.2786 81.0833C25.3537 81.0803 25.4302 81.0833 25.5053 81.0833C26.6179 81.0833 27.7306 81.0833 28.8432 81.0833C29.1105 81.0833 29.1091 81.0593 29.1076 81.3446C29.1061 81.6689 29.1046 81.9933 29.1076 82.3161C29.1076 82.4227 29.079 82.4798 28.9634 82.4693C28.8988 82.4633 28.8343 82.4693 28.7697 82.4693C27.1285 82.4693 25.4858 82.4693 23.8445 82.4693C23.4677 82.4693 23.5127 82.5173 23.5112 82.1509C23.5097 80.747 23.5112 79.3415 23.5112 77.9375L23.5127 77.939Z" fill="#241F21"/>
<path d="M31.3556 77.8985C31.3556 76.5156 31.3556 75.1326 31.3556 73.7497C31.3556 73.6746 31.3586 73.598 31.3556 73.5229C31.3511 73.4238 31.4021 73.3938 31.4937 73.3953C31.9367 73.3968 32.3796 73.3983 32.8226 73.3953C32.9307 73.3953 32.9833 73.4314 32.9757 73.5455C32.9712 73.6206 32.9757 73.6971 32.9757 73.7722C32.9757 76.0621 32.9757 78.3535 32.9757 80.6434C32.9757 80.7079 32.9757 80.7725 32.9757 80.837C32.9803 81.0788 32.9817 81.0833 33.2295 81.0833C34.3527 81.0833 35.4759 81.0833 36.6005 81.0833C36.6756 81.0833 36.7522 81.0833 36.8272 81.0833C36.9023 81.0833 36.9504 81.1088 36.9504 81.1914C36.9504 81.5803 36.9504 81.9692 36.9504 82.3581C36.9504 82.4407 36.9114 82.4737 36.8318 82.4707C36.7672 82.4692 36.7026 82.4707 36.6381 82.4707C34.9849 82.4707 33.3331 82.4707 31.6799 82.4707C31.6154 82.4707 31.5508 82.4677 31.4862 82.4707C31.3901 82.4767 31.3496 82.4317 31.3556 82.3371C31.3601 82.262 31.3556 82.1855 31.3556 82.1104C31.3556 80.7064 31.3556 79.301 31.3556 77.897V77.8985Z" fill="#241F21"/>
<path d="M66.6185 77.9314C66.6185 76.5394 66.6185 75.1475 66.6185 73.7556C66.6185 73.6805 66.6215 73.6039 66.6185 73.5288C66.614 73.4342 66.6531 73.3937 66.7507 73.3937C67.2042 73.3967 67.6561 73.3952 68.1096 73.3937C68.2072 73.3937 68.2417 73.4432 68.2387 73.5333C68.2357 73.6084 68.2387 73.685 68.2387 73.7601C68.2387 76.544 68.2387 79.3264 68.2387 82.1102C68.2387 82.5142 68.2973 82.4661 67.8769 82.4691C67.542 82.4721 67.2087 82.4691 66.8738 82.4691C66.596 82.4691 66.6201 82.4856 66.6201 82.2003C66.6201 81.2408 66.6201 80.2798 66.6201 79.3203C66.6201 78.8564 66.6201 78.3924 66.6201 77.9284L66.6185 77.9314Z" fill="#241F21"/>
<path d="M21.1268 77.1673C20.9586 75.9675 20.4421 74.9495 19.4841 74.1927C18.6237 73.514 17.6327 73.2047 16.493 73.2407C16.1566 73.2257 15.7813 73.2452 15.4119 73.3308C14.0665 73.6431 13.0439 74.3834 12.4117 75.6252C11.8591 76.7108 11.742 77.861 11.9913 79.0397C12.3096 80.5473 13.149 81.657 14.5875 82.2756C15.4614 82.651 16.3758 82.7426 17.3068 82.5969C19.0081 82.3297 20.2094 81.4077 20.849 79.798C21.1854 78.9511 21.2529 78.0652 21.1268 77.1658V77.1673ZM19.2694 79.334C18.8279 80.3941 18.0561 81.0338 16.8999 81.1749C15.095 81.3957 13.8532 80.1734 13.5965 78.6643C13.5529 78.4091 13.5229 78.1538 13.5274 77.894C13.5619 76.9736 13.8022 76.1342 14.4854 75.469C15.1115 74.8579 15.8773 74.6281 16.7287 74.6777C18.3744 74.7753 19.4015 76.0426 19.5126 77.6223C19.5531 78.2079 19.4991 78.786 19.2709 79.334H19.2694Z" fill="#241F21"/>
<path d="M42.9088 68.0962C42.1911 66.2628 41.4704 64.4294 40.7511 62.596C40.3457 61.5644 39.9388 60.5343 39.5379 59.5012C39.4853 59.3661 39.4252 59.294 39.2615 59.2985C38.721 59.3106 38.1819 59.3121 37.6413 59.2985C37.4626 59.294 37.4026 59.3796 37.347 59.5223C37.0212 60.3646 36.6894 61.2055 36.3591 62.0464C35.5647 64.069 34.7689 66.0916 33.9775 68.1172C33.9445 68.2013 33.8725 68.2854 33.919 68.4055C34.4221 68.4055 34.9295 68.398 35.4355 68.41C35.6052 68.413 35.6818 68.356 35.7374 68.1968C35.8936 67.7508 36.0723 67.3109 36.2344 66.8664C36.287 66.7208 36.356 66.6487 36.5302 66.6502C37.805 66.6592 39.0798 66.6577 40.3532 66.6517C40.5168 66.6517 40.5979 66.6967 40.655 66.8604C40.8127 67.3184 40.9973 67.7658 41.167 68.2193C41.212 68.3409 41.2632 68.413 41.4178 68.4085C41.9359 68.3965 42.4539 68.404 42.9884 68.404C42.999 68.2689 42.9434 68.1833 42.9088 68.0947V68.0962ZM36.787 65.2147C37.338 63.7251 37.8816 62.2596 38.4477 60.7295C39.0153 62.2611 39.5573 63.7281 40.1084 65.2147H36.787Z" fill="#241F21"/>
<path d="M81.796 66.7104C81.2344 65.2779 80.6729 63.8469 80.1113 62.4144C79.7389 61.4624 79.368 60.5104 78.9956 59.5599C78.8965 59.3062 78.8936 59.3047 78.6248 59.3047C78.1278 59.3047 77.6322 59.3047 77.1352 59.3047C76.8724 59.3047 76.8709 59.3062 76.7688 59.5614C76.5901 60.0119 76.4144 60.4624 76.2372 60.9129C75.3648 63.1352 74.491 65.3575 73.6201 67.5813C73.5165 67.8471 73.3948 68.1068 73.3228 68.4056C73.8738 68.4056 74.4024 68.4011 74.9309 68.4086C75.0691 68.4102 75.1051 68.3471 75.1471 68.233C75.3168 67.7675 75.5045 67.3095 75.6741 66.8455C75.7267 66.7014 75.8018 66.6503 75.9565 66.6518C77.2523 66.6578 78.5467 66.6563 79.8425 66.6518C79.9686 66.6518 80.0227 66.6894 80.0662 66.814C80.2314 67.281 80.4131 67.7405 80.5918 68.2014C80.6338 68.308 80.6594 68.4147 80.8275 68.4102C81.3561 68.3966 81.8847 68.4056 82.4568 68.4056C82.224 67.8095 82.0093 67.2599 81.7945 66.7104H81.796ZM76.2177 65.2118C76.7703 63.7208 77.3139 62.2538 77.877 60.7312C78.4401 62.2507 78.9851 63.7163 79.5392 65.2118H76.2177Z" fill="#241F21"/>
<path d="M33.7472 61.8797C33.6931 61.1965 33.4454 60.5808 32.9393 60.0958C32.3552 59.5358 31.6374 59.3105 30.8461 59.306C29.5938 59.2985 28.3415 59.3045 27.0877 59.3045C27.0232 59.3045 26.9586 59.3045 26.894 59.306C26.8189 59.309 26.7754 59.3451 26.7754 59.4246C26.7754 59.4997 26.7754 59.5763 26.7754 59.6514C26.7754 61.0553 26.7754 62.4593 26.7754 63.8633C26.7754 65.3002 26.7754 66.7357 26.7754 68.1727C26.7754 68.401 26.7799 68.404 27.0036 68.4055C27.3925 68.4085 27.7814 68.4085 28.1703 68.4055C28.3926 68.4055 28.3956 68.401 28.3956 68.1742C28.3956 67.3964 28.3956 66.6186 28.3956 65.8423C28.3956 65.6261 28.4031 65.4099 28.3941 65.1951C28.3881 65.0525 28.4466 65.0029 28.5833 65.0089C28.7229 65.015 28.864 65.0135 29.0037 65.0089C29.7695 64.9909 30.5368 65.0585 31.2996 64.9699C31.9137 64.8978 32.4648 64.6726 32.9138 64.2356C33.5789 63.5885 33.8177 62.7806 33.7472 61.8827V61.8797ZM31.196 63.4668C31.0038 63.5374 30.8041 63.581 30.5984 63.581C29.9512 63.581 29.3055 63.581 28.6584 63.581C28.4001 63.581 28.3986 63.5764 28.3971 63.3107C28.3956 62.9233 28.3971 62.5344 28.3971 62.147C28.3971 61.7475 28.4046 61.3496 28.3941 60.9502C28.3896 60.779 28.4466 60.7265 28.6148 60.728C29.2935 60.7355 29.9737 60.713 30.6509 60.737C31.22 60.758 31.696 60.9833 31.9603 61.5283C32.2892 62.2055 32.0594 63.1515 31.1975 63.4698L31.196 63.4668Z" fill="#241F21"/>
</svg>
