<svg width="291" height="81" viewBox="0 0 291 81" fill="none" xmlns="http://www.w3.org/2000/svg">
<path d="M290.909 45.4421C290.909 46.0593 290.871 46.7019 290.793 47.3705H275.702C275.807 48.7073 276.235 49.7356 276.989 50.4556C277.768 51.1497 278.719 51.4968 279.835 51.4968C281.5 51.4968 282.656 50.8027 283.306 49.4143H290.403C290.039 50.8284 289.376 52.101 288.414 53.2322C287.479 54.3634 286.296 55.2505 284.866 55.8931C283.437 56.5358 281.837 56.8573 280.069 56.8573C277.938 56.8573 276.041 56.4074 274.376 55.5074C272.713 54.6076 271.414 53.3221 270.477 51.651C269.542 49.98 269.073 48.0259 269.073 45.7894C269.073 43.5526 269.528 41.5987 270.439 39.9275C271.374 38.2565 272.673 36.9709 274.338 36.0711C276.001 35.1713 277.913 34.7214 280.069 34.7214C282.176 34.7214 284.046 35.1584 285.685 36.0325C287.323 36.9068 288.597 38.1536 289.505 39.7732C290.443 41.393 290.909 43.2825 290.909 45.4421ZM284.086 43.7069C284.086 42.5757 283.696 41.6759 282.917 41.0073C282.136 40.3389 281.161 40.0046 279.991 40.0046C278.873 40.0046 277.925 40.326 277.146 40.9688C276.391 41.6115 275.923 42.5242 275.742 43.7069H284.086Z" fill="#141414"/>
<path d="M257.383 34.8032C259.93 34.8032 261.958 35.6261 263.467 37.2714C265 38.891 265.766 41.1278 265.766 43.9816V56.5536H259.137V44.8685C259.137 43.4289 258.76 42.3104 258.008 41.5135C257.254 40.7165 256.238 40.318 254.966 40.318C253.692 40.318 252.678 40.7165 251.924 41.5135C251.17 42.3104 250.793 43.4289 250.793 44.8685V56.5536H244.126V35.0346H250.793V37.8883C251.469 36.9371 252.379 36.1916 253.522 35.6516C254.667 35.0861 255.953 34.8032 257.383 34.8032Z" fill="#141414"/>
<path d="M235.976 32.7972C234.807 32.7972 233.845 32.4629 233.09 31.7945C232.363 31.1002 231.997 30.2518 231.997 29.2492C231.997 28.2208 232.363 27.3724 233.09 26.704C233.845 26.0098 234.807 25.6627 235.976 25.6627C237.119 25.6627 238.056 26.0098 238.784 26.704C239.538 27.3724 239.915 28.2208 239.915 29.2492C239.915 30.2518 239.538 31.1002 238.784 31.7945C238.056 32.4629 237.119 32.7972 235.976 32.7972ZM239.29 35.0339V56.5526H232.622V35.0339H239.29Z" fill="#141414"/>
<path d="M229.489 40.5092H225.902V56.5519H219.234V40.5092H216.816V35.033H219.234V34.4161C219.234 31.7679 220.001 29.7626 221.534 28.4001C223.068 27.0117 225.317 26.3176 228.279 26.3176C228.774 26.3176 229.138 26.3304 229.373 26.3561V31.9479C228.098 31.8707 227.201 32.0507 226.681 32.4879C226.161 32.9248 225.902 33.709 225.902 34.8402V35.033H229.489V40.5092Z" fill="#141414"/>
<path d="M215.054 45.4421C215.054 46.0593 215.016 46.7019 214.938 47.3705H199.846C199.951 48.7073 200.38 49.7356 201.134 50.4556C201.913 51.1497 202.862 51.4968 203.98 51.4968C205.644 51.4968 206.801 50.8027 207.45 49.4143H214.547C214.183 50.8284 213.521 52.101 212.559 53.2322C211.623 54.3634 210.441 55.2505 209.01 55.8931C207.58 56.5358 205.981 56.8573 204.214 56.8573C202.082 56.8573 200.185 56.4074 198.521 55.5074C196.858 54.6076 195.557 53.3221 194.622 51.651C193.686 49.98 193.218 48.0259 193.218 45.7894C193.218 43.5526 193.673 41.5987 194.583 39.9275C195.519 38.2565 196.818 36.9709 198.483 36.0711C200.145 35.1713 202.056 34.7214 204.214 34.7214C206.321 34.7214 208.191 35.1584 209.829 36.0325C211.467 36.9068 212.74 38.1536 213.65 39.7732C214.585 41.393 215.054 43.2825 215.054 45.4421ZM208.231 43.7069C208.231 42.5757 207.841 41.6759 207.06 41.0073C206.281 40.3389 205.305 40.0046 204.136 40.0046C203.018 40.0046 202.069 40.326 201.29 40.9688C200.536 41.6115 200.067 42.5242 199.886 43.7069H208.231Z" fill="#141414"/>
<path d="M166.761 45.7571C166.761 43.5462 167.177 41.6051 168.009 39.9339C168.866 38.2628 170.023 36.9773 171.479 36.0775C172.935 35.1777 174.56 34.7278 176.353 34.7278C177.783 34.7278 179.083 35.0234 180.252 35.6149C181.448 36.2061 182.384 37.003 183.06 38.0057V28.0176H189.728V56.5551H183.06V53.47C182.436 54.4984 181.539 55.321 180.369 55.9382C179.226 56.5551 177.887 56.8637 176.353 56.8637C174.56 56.8637 172.935 56.4138 171.479 55.514C170.023 54.5885 168.866 53.29 168.009 51.619C167.177 49.922 166.761 47.9681 166.761 45.7571ZM183.06 45.7958C183.06 44.1502 182.592 42.852 181.656 41.9007C180.746 40.9495 179.629 40.4739 178.303 40.4739C176.977 40.4739 175.846 40.9495 174.91 41.9007C174.001 42.8263 173.546 44.1118 173.546 45.7571C173.546 47.4026 174.001 48.7138 174.91 49.6908C175.846 50.642 176.977 51.1176 178.303 51.1176C179.629 51.1176 180.746 50.642 181.656 49.6908C182.592 48.7395 183.06 47.4411 183.06 45.7958Z" fill="#141414"/>
<path d="M164.365 50.9639V56.5557H160.973C158.555 56.5557 156.671 55.9772 155.319 54.8203C153.967 53.6378 153.291 51.7224 153.291 49.0742V40.5131H150.64V35.037H153.291V29.7922H159.959V35.037H164.326V40.5131H159.959V49.1514C159.959 49.7942 160.115 50.2569 160.427 50.5397C160.739 50.8226 161.259 50.9639 161.987 50.9639H164.365Z" fill="#5F5FFF"/>
<path d="M147.447 35.0338V56.5527H140.779V53.6219C140.103 54.5731 139.18 55.3444 138.01 55.9356C136.867 56.5013 135.593 56.7842 134.189 56.7842C132.525 56.7842 131.057 56.4242 129.783 55.7044C128.509 54.9586 127.521 53.8918 126.819 52.5034C126.117 51.115 125.767 49.4827 125.767 47.6057V35.0338H132.395V46.7189C132.395 48.1585 132.772 49.277 133.526 50.0739C134.28 50.8709 135.294 51.2693 136.568 51.2693C137.867 51.2693 138.894 50.8709 139.648 50.0739C140.402 49.277 140.779 48.1585 140.779 46.7189V35.0338H147.447Z" fill="#5F5FFF"/>
<path d="M111.042 56.8573C108.91 56.8573 106.986 56.4074 105.271 55.5074C103.581 54.6076 102.242 53.3221 101.254 51.651C100.292 49.98 99.8115 48.0259 99.8115 45.7894C99.8115 43.5783 100.305 41.6372 101.293 39.9662C102.281 38.2692 103.633 36.9709 105.349 36.0711C107.064 35.1713 108.988 34.7214 111.12 34.7214C113.251 34.7214 115.175 35.1713 116.89 36.0711C118.606 36.9709 119.958 38.2692 120.946 39.9662C121.934 41.6372 122.428 43.5783 122.428 45.7894C122.428 48.0004 121.921 49.9543 120.907 51.651C119.919 53.3221 118.554 54.6076 116.813 55.5074C115.097 56.4074 113.173 56.8573 111.042 56.8573ZM111.042 51.1497C112.315 51.1497 113.394 50.6869 114.278 49.7613C115.188 48.8358 115.643 47.5118 115.643 45.7894C115.643 44.0667 115.201 42.7427 114.317 41.8172C113.459 40.8917 112.393 40.4288 111.12 40.4288C109.82 40.4288 108.741 40.8917 107.883 41.8172C107.025 42.717 106.596 44.041 106.596 45.7894C106.596 47.5118 107.012 48.8358 107.844 49.7613C108.702 50.6869 109.768 51.1497 111.042 51.1497Z" fill="#5F5FFF"/>
<path d="M80.7632 40.6626C80.7632 18.5713 62.8547 0.662842 40.7634 0.662842C18.6722 0.662842 0.763672 18.5713 0.763672 40.6626C0.763672 62.7539 18.6722 80.6624 40.7634 80.6624C62.8547 80.6624 80.7632 62.7539 80.7632 40.6626Z" fill="#F9F9F9"/>
<path d="M20.7637 16.6633V29.1078C26.6221 29.1078 31.952 33.7217 31.952 40.6901C31.952 47.6586 26.6221 52.2268 20.7637 52.2268V64.6631C32.9291 64.6631 43.9934 55.0829 43.9934 40.7108C43.9934 26.3387 32.9251 16.6633 20.7637 16.6633Z" fill="#5F5FFF"/>
<path d="M60.769 29.0871V16.6633C52.3757 16.6633 44.6912 20.7548 40.4664 27.8393C42.6329 31.4417 43.9102 35.7945 43.9102 40.7108C43.9102 45.6274 42.6049 50.0172 40.3984 53.6279C44.3948 60.4016 51.6989 64.6341 60.765 64.6631V52.2144C56.0357 51.8786 52.7441 49.2214 51.5108 45.1133H60.765V36.6068H51.4146C52.8003 31.2553 56.7084 29.1741 60.765 29.0829L60.769 29.0871Z" fill="#141414"/>
</svg>
