<svg width="412" height="59" viewBox="0 0 412 59" fill="none" xmlns="http://www.w3.org/2000/svg">
<path d="M28.7316 23.2049C23.8318 23.2065 18.9319 23.1788 14.0305 23.2146C9.1241 23.2505 6.32698 25.676 6.44923 29.6989C6.57475 33.7951 9.25452 36.0152 14.2163 36.0282C24.1529 36.0543 34.0911 35.9304 44.0245 36.069C52.7695 36.1912 58.4339 44.3218 54.9652 51.6145C53.2227 55.2771 50.1713 57.6831 46.1516 58.0417C35.5663 58.9838 24.9386 58.2536 14.3288 58.4394C12.6661 58.4687 12.2684 57.5559 12.3027 56.1313C12.3483 54.2453 12.2717 52.3561 12.3222 50.4718C12.363 48.9624 11.7843 46.9852 14.4999 47.171C16.4918 47.3063 19.2107 46.2974 18.8293 50.022C18.6614 51.6683 19.7209 52.0301 21.1488 52.0236C28.7708 51.9943 36.3976 52.1377 44.0131 51.9242C46.8933 51.8427 49.4492 50.467 49.3269 47.0227C49.2063 43.6225 46.6439 42.4326 43.7278 42.3935C33.7929 42.2614 23.8546 42.3853 13.9196 42.2908C6.78666 42.2239 1.77109 38.6412 0.413284 32.897C-1.60631 24.3622 3.97163 17.0972 12.8732 16.9602C22.1268 16.8184 31.3837 16.9309 40.6405 16.9211C41.8647 16.9211 43.1182 17.0108 44.3048 16.7875C47.0318 16.2724 49.3449 15.0205 49.309 11.8893C49.2764 8.95033 47.0335 7.40996 44.4776 7.32357C36.4579 7.05462 28.4252 7.15731 20.399 7.10026C18.8602 7.08885 18.5391 8.1125 18.6825 9.25025C19.108 12.6391 16.733 11.9414 14.7591 12.1044C11.9929 12.3343 12.1576 10.6048 12.1233 8.75473C11.9815 0.79697 11.9554 0.796969 19.8969 0.796969C27.2467 0.796969 34.5981 0.770889 41.9478 0.816529C43.5681 0.82631 45.2274 0.914331 46.8004 1.26479C52.6913 2.57532 56.5593 7.79791 55.9122 13.384C55.2961 18.6946 50.393 23.0565 44.6586 23.1771C39.3528 23.2896 34.0422 23.2016 28.7332 23.2032L28.7316 23.2049Z" fill="#F66901"/>
<path d="M241.695 35.9304C238.218 35.9304 235.25 35.8359 232.29 35.9646C230.389 36.0478 229.636 35.5099 229.657 33.5001C229.679 31.5326 230.031 30.5497 232.339 30.6394C236.686 30.8056 241.05 30.8056 245.397 30.641C247.892 30.5465 248.302 31.4462 248.044 33.7266C246.579 46.7521 229.861 53.9389 217.903 46.607C210.687 42.1815 207.104 34.4178 208.516 26.2677C209.902 18.2675 216.043 11.7637 223.737 10.1451C232.13 8.37981 240.657 11.5404 245.24 18.3001C246.13 19.6123 248.256 21.6254 246.693 22.68C245.097 23.7558 242.341 23.7346 240.675 21.2064C237.57 16.4941 232.942 14.6603 227.356 15.0107C220.267 15.4557 214.49 20.7924 213.612 27.7037C212.718 34.7226 216.917 41.241 223.685 43.3421C231.038 45.6258 237.742 43.0585 241.695 35.9304Z" fill="#0D1B3D"/>
<path d="M198.736 48.198C195.055 49.6765 194.348 49.5346 192.159 46.7375C185.34 38.0283 178.533 29.3077 170.975 19.6352C170.975 23.6842 170.975 26.7763 170.975 29.8684C170.975 35.3893 170.872 40.9135 171.024 46.4295C171.086 48.705 170.111 49.0261 168.136 49.0717C165.989 49.1206 165.363 48.449 165.382 46.33C165.48 35.5588 165.399 24.786 165.467 14.0132C165.475 12.8282 164.559 10.9798 166.406 10.5478C168.492 10.0588 170.507 10.1615 172.145 12.318C177.859 19.8389 183.782 27.2034 189.632 34.6232C190.612 35.8669 191.621 37.0878 193.386 39.272C193.386 33.0747 193.386 27.9352 193.386 22.7958C193.386 19.9677 193.378 17.1396 193.388 14.3132C193.404 9.8681 193.719 9.67576 198.638 11.0368C198.374 23.425 198.203 35.8131 198.734 48.1997L198.736 48.198Z" fill="#0D1C3D"/>
<path d="M102.065 49.6634C91.6308 49.2282 86.4376 45.2037 85.0341 37.1514C84.8173 35.9028 83.5867 33.9125 86.3332 33.9696C87.8834 34.0022 90.2208 32.6998 90.405 36.1294C90.6365 40.444 93.6259 42.8907 97.6032 43.872C101.877 44.9282 106.068 44.5289 109.361 41.1938C112.332 38.1848 111.225 34.1717 107.202 32.5645C103.333 31.0176 99.1485 31.4642 95.1777 30.5319C89.6569 29.2344 86.7766 26.6149 86.1882 21.9792C85.5606 17.0337 87.9518 13.1118 93.0082 10.7988C99.0751 8.02292 107.558 9.25032 111.656 13.5112C112.991 14.9 114.057 16.4713 114.29 18.4176C114.42 19.495 115.255 21.1919 113.393 21.319C111.973 21.4168 110.115 22.5969 109.031 19.9596C106.679 14.2317 97.9406 12.4843 93.1679 16.53C90.3545 18.9163 90.643 22.2954 93.8297 24.2204C96.3742 25.7575 99.3164 25.6092 102.102 26.1096C103.833 26.421 105.613 26.5302 107.312 26.9621C113.863 28.6313 116.285 31.4479 116.241 37.1546C116.195 43.2102 112.573 47.7873 106.673 49.0636C104.826 49.4629 102.914 49.5558 102.063 49.6618L102.065 49.6634Z" fill="#0D1B3D"/>
<path d="M271.412 49.6356C261.953 49.5199 256.015 45.3438 254.618 37.58C254.401 36.3738 253.05 34.1097 256.013 33.9271C257.987 33.8049 259.907 33.3615 260.176 36.6232C260.514 40.7047 263.727 43.3258 268.089 44.0952C272.975 44.9575 277.785 43.3389 279.768 40.1668C281.64 37.1709 280.55 34.1472 277.117 32.672C273.287 31.0257 269.099 31.4218 265.124 30.5677C259.412 29.3402 256.339 26.6067 255.904 21.8959C255.404 16.4892 257.787 12.7043 263.052 10.5412C269.464 7.90711 278.198 9.55669 281.862 14.1631C282.953 15.534 283.94 17.0287 283.963 18.8804C283.975 19.8519 284.599 21.4069 282.928 21.358C281.572 21.3189 279.875 22.5186 278.773 20.2398C276.255 15.0319 270.054 12.8982 264.758 15.2585C262.595 16.2235 260.776 17.6432 260.931 20.4224C261.075 22.9962 262.731 24.3279 264.974 24.8512C267.736 25.495 270.565 25.9156 273.386 26.2481C282.63 27.3353 286.275 30.8839 285.733 38.4097C285.238 45.3112 279.593 49.7334 271.409 49.634L271.412 49.6356Z" fill="#0D1B3C"/>
<path d="M121.267 48.2143C119.908 47.5444 120.578 46.3104 120.573 45.365C120.519 34.7389 120.586 24.1112 120.501 13.4835C120.483 11.2797 120.669 10.0865 123.479 10.1224C126.25 10.1582 126.102 11.5552 126.092 13.4183C126.051 22.4306 126.141 31.4447 126.027 40.4554C125.999 42.6559 126.498 43.4954 128.901 43.4302C135.01 43.2639 141.132 43.2183 147.237 43.4449C149.99 43.5459 150.309 42.4228 150.256 40.1653C150.127 34.6525 150.199 29.1349 150.22 23.6206C150.236 19.4151 151.087 18.9603 155.434 20.7582C154.798 28.5367 155.147 36.3315 155.239 44.1132C155.274 47.2216 154.308 47.9405 151.323 47.8736C142.637 47.6813 133.942 47.7889 125.253 47.8231C123.924 47.828 122.532 47.4694 121.267 48.2127V48.2143Z" fill="#0E1D3E"/>
<path d="M300.204 31.3926C298.75 35.8083 299.746 40.3446 299.563 44.8207C299.374 49.4711 299.335 49.595 294.546 48.1916C295.074 35.8083 295.071 23.425 294.548 11.0434C299.297 9.67907 299.499 9.79643 299.522 14.0785C299.539 17.2994 299.648 20.5252 299.48 23.738C299.369 25.857 300.073 26.5188 302.212 26.4748C308.849 26.3379 315.492 26.3884 322.131 26.3672C323.151 21.2799 322.61 16.1649 322.403 11.0564C323.951 10.0165 325.503 9.95617 327.058 11.0385C326.261 17.689 326.745 24.3656 326.745 31.0258C326.745 36.7504 326.23 42.4946 327.058 48.2062C325.498 49.2853 323.947 49.2266 322.4 48.1753C322.688 42.7946 323.003 37.4139 322.232 32.0429C321.896 31.8115 321.56 31.58 321.223 31.3469C314.214 30.4879 307.208 30.4309 300.204 31.3926Z" fill="#0D1C3D"/>
<path d="M392.354 15.9008C388.414 15.8454 384.469 15.6775 380.534 15.7785C378.394 15.8339 377.781 15.1542 377.758 13.0319C377.735 10.8282 378.502 10.3391 380.57 10.3587C390.088 10.45 399.607 10.4451 409.125 10.3587C411.068 10.3408 411.775 10.9162 411.756 12.8575C411.736 14.7386 411.508 15.9432 409.125 15.7802C406.417 15.596 403.672 15.9236 400.973 15.6856C398.169 15.4379 397.294 16.2741 397.341 19.1706C397.491 28.5872 397.312 38.0104 397.26 47.4303C392.924 48.048 392.904 48.048 392.896 43.9273C392.882 35.875 392.918 27.8211 392.865 19.7688C392.857 18.4811 393.361 17.0777 392.355 15.9008H392.354Z" fill="#0D1C3D"/>
<path d="M68.0702 29.9173C67.7589 32.6198 66.0604 34.4194 62.8966 34.6394C60.15 34.8301 57.6544 32.3949 57.6071 29.6483C57.5599 26.8773 59.9055 24.5496 62.7368 24.5578C65.6709 24.5659 68.0246 26.755 68.0702 29.9173Z" fill="#F66A03"/>
<path d="M121.267 48.2142C122.469 46.9021 124.058 47.4498 125.479 47.44C133.867 47.3895 142.259 47.2965 150.642 47.4775C153.745 47.5443 154.965 46.7815 154.826 43.4709C154.564 37.1855 154.727 30.8806 154.769 24.5855C154.777 23.2945 154.331 21.8813 155.432 20.7582C155.48 29.2375 155.53 37.7169 155.571 46.1979C155.578 47.3732 155.877 48.5794 153.856 48.5468C142.994 48.3724 132.13 48.312 121.266 48.2126L121.267 48.2142Z" fill="#00002A"/>
<path d="M156.203 12.9667C155.859 14.8167 154.851 16.0458 152.709 15.9137C150.576 15.7833 149.616 14.4793 149.674 12.4891C149.738 10.3684 151.145 9.36757 153.11 9.4507C155.146 9.53709 156.147 10.8721 156.204 12.9667H156.203Z" fill="#142041"/>
<path d="M198.736 48.198C197.825 47.3357 198.068 46.211 198.058 45.1596C197.951 34.0152 197.851 22.8707 197.796 11.7247C197.796 11.4965 198.347 11.265 198.64 11.0352C198.673 23.4233 198.704 35.8115 198.736 48.198Z" fill="#000133"/>
<path d="M294.547 11.0433C294.71 11.2552 295.012 11.4623 295.018 11.679C295.408 23.6385 295.408 35.5996 295.018 47.5591C295.012 47.7742 294.71 47.9812 294.546 48.1931C294.058 35.8099 294.057 23.4266 294.547 11.045V11.0433Z" fill="#000031"/>
<path d="M327.058 48.2061C326.21 47.5182 326.303 46.5581 326.303 45.629C326.301 34.9573 326.301 24.2839 326.303 13.6122C326.303 12.6847 326.208 11.723 327.059 11.0367C327.617 23.4265 327.618 35.8163 327.059 48.2061H327.058Z" fill="#000031"/>
<path d="M392.354 15.9009C393.879 16.9946 393.247 18.6083 393.257 19.9971C393.317 27.7837 393.426 35.5752 393.216 43.3569C393.131 46.4735 393.976 47.9454 397.257 47.4287C396.326 49.5999 394.453 48.4687 393.143 48.2992C391.741 48.1166 392.396 46.5257 392.39 45.5803C392.336 35.6877 392.354 25.7951 392.352 15.9009H392.354Z" fill="#00002B"/>
<path d="M300.203 31.3925C301.135 29.9288 302.632 30.4618 303.911 30.452C309.615 30.4064 315.32 30.4422 321.025 30.4569C321.124 30.4569 321.307 30.5775 321.309 30.6444C321.314 30.8774 321.256 31.1122 321.222 31.3469C314.216 31.3616 307.209 31.3762 300.203 31.3925Z" fill="#000131"/>
<path d="M322.231 32.0428C323.602 37.4072 323.364 42.7863 322.399 48.1752C322.344 42.7977 322.287 37.4203 322.231 32.0428Z" fill="#00002B"/>
<path d="M322.404 11.0547C323.257 16.1746 323.804 21.2896 322.132 26.3655C322.223 21.2619 322.313 16.1583 322.404 11.0547Z" fill="#00002B"/>
<path d="M355.833 10.036C344.724 10.0181 335.692 18.7566 335.656 29.5572C335.62 40.5728 344.662 49.4548 355.929 49.4727C366.865 49.489 376.107 40.5402 376.169 29.8766C376.232 18.9213 367.145 10.0556 355.833 10.036ZM356.015 44.1703C347.728 44.2143 341.062 37.81 341.037 29.7821C341.013 21.7331 347.613 15.2277 355.841 15.1918C364.092 15.1559 370.803 21.5978 370.863 29.6109C370.923 37.6388 364.307 44.1246 356.015 44.1703Z" fill="#0D1B3D"/>
</svg>
