<svg width="256" height="65" viewBox="0 0 256 65" fill="none" xmlns="http://www.w3.org/2000/svg">
<path d="M42.9053 0.662598C53.3913 11.1486 63.7755 21.5328 74.1874 31.954C65.5818 33.7048 57.8655 32.5376 52.8448 23.4688L52.011 24.284C52.011 32.0373 51.6127 39.8185 52.1407 47.5348C52.5391 53.4448 50.9365 57.9004 46.2029 61.4019C45.184 62.1522 44.6467 63.5603 43.8779 64.6626C43.5536 64.4125 43.2295 64.1624 42.9053 63.9031V0.662598Z" fill="black"/>
<path d="M21.5343 23.6169C16.7081 32.7135 8.9919 33.6583 0.756836 32.0094C10.9187 21.8476 21.2472 11.5098 31.6499 1.0979V64.0605C26.4995 59.5215 21.3583 56.0385 22.2569 47.9609C23.1184 40.226 22.4421 32.3244 22.4421 24.4969C22.1364 24.2005 21.84 23.9041 21.5343 23.6077V23.6169Z" fill="black"/>
<path d="M163.744 34.7235C163.744 29.7492 163.911 24.9971 163.679 20.2636C163.54 17.5124 164.874 17.4661 166.977 17.3734C169.386 17.2715 169.71 18.2997 169.691 20.3469C169.599 28.0354 169.71 35.7333 169.589 43.431C169.571 44.6631 170.821 46.877 168.218 47.0159C166.227 47.1271 164.022 47.8218 162.596 45.191C160.039 40.476 157.14 35.9463 154.379 31.3424C154.101 30.8792 153.758 30.4624 152.684 28.9433C152.684 34.9181 152.471 39.6238 152.758 44.2925C152.934 47.2104 151.415 47.0437 149.414 47.1456C147.163 47.2661 146.542 46.5064 146.579 44.2739C146.718 36.5854 146.579 28.8877 146.691 21.1899C146.709 19.9301 145.505 17.7161 148.024 17.5401C149.97 17.4104 152.221 16.6045 153.638 19.2538C156.176 23.9873 159.02 28.5449 161.762 33.1673C162.123 33.7694 162.216 34.668 163.753 34.7235H163.744Z" fill="#010101"/>
<path d="M186.801 17.5774C189.7 17.5033 192.794 16.9104 195.258 18.9113C197.102 20.4119 198.612 22.8019 196.731 24.7472C195.731 25.7754 193.248 27.3687 191.071 24.2377C189.181 21.5235 185.421 22.6352 182.595 23.6078C181.206 24.0895 181.548 26.044 181.799 27.3872C182.058 28.8045 183.151 29.314 184.54 29.314C186.699 29.314 188.857 29.3047 191.015 29.3603C195.054 29.4715 197.389 31.4723 197.435 35.5945C197.472 39.3276 198.639 43.4961 194.434 45.9787C191.136 47.924 180.363 47.5071 177.889 45.3858C176.12 43.8666 174.833 41.486 176.417 39.8371C177.417 38.7996 180.566 35.9743 182.197 40.3929C182.706 41.7731 189.635 41.977 190.83 40.8932C192.025 39.8001 191.738 38.3457 191.618 36.9932C191.479 35.5111 190.432 34.946 189.052 34.909C187.977 34.8905 186.893 34.909 185.819 34.8905C176.972 34.8071 174.249 31.4168 175.944 22.6908C176.574 19.4486 178.862 18.0962 181.743 17.6052C183.392 17.3273 185.124 17.5589 186.81 17.5589L186.801 17.5774Z" fill="#010101"/>
<path d="M119.346 31.9453C119.346 28.101 119.503 24.2474 119.29 20.4124C119.151 17.8928 120.087 17.3277 122.421 17.4018C127.34 17.5593 132.277 17.5501 137.196 17.4018C139.336 17.337 140.151 17.8281 140.105 20.1717C140.058 22.3763 139.447 23.1451 137.215 22.9969C134.454 22.8116 131.675 23.0062 128.906 22.9321C126.784 22.8765 125.145 22.7375 125.135 25.887C125.135 28.9624 126.312 29.6017 128.952 29.3145C130.323 29.1663 131.721 29.2219 133.102 29.3052C135.001 29.4257 137.474 28.2863 137.363 32.1028C137.252 35.9748 134.658 34.4927 132.842 34.715C131.629 34.8632 130.378 34.7984 129.155 34.7335C126.849 34.6131 125.145 34.5389 125.117 37.9293C125.089 41.3475 126.562 41.6717 129.23 41.5049C131.684 41.3474 134.167 41.5976 136.612 41.4309C138.993 41.2734 140.123 41.6995 140.133 44.5526C140.133 47.665 138.317 47.0722 136.548 47.0907C135.936 47.0907 135.316 47.1185 134.704 47.0907C129.674 46.8128 122.94 49.2213 120.114 46.1551C117.678 43.5058 119.605 36.8363 119.605 31.9453C119.522 31.9453 119.429 31.9453 119.346 31.9453Z" fill="#010101"/>
<path d="M101.449 17.4477C104.534 17.4477 107.627 17.5681 110.703 17.4106C112.908 17.2902 113.602 18.0128 113.612 20.2545C113.612 22.6259 112.648 22.9594 110.583 23.0057C104.089 23.1446 104.089 23.2373 104.089 29.5456C104.089 34.3162 104.006 39.096 104.126 43.8666C104.182 46.0157 103.959 47.155 101.254 47.1921C98.3828 47.2292 98.0399 46.0713 98.114 43.6721C98.2715 38.9015 98.1604 34.1216 98.1604 29.351C98.1604 23.0983 98.1605 23.0705 91.9818 22.9593C90.2774 22.9315 88.6285 23.3391 88.7397 20.5509C88.8323 18.3555 89.0824 17.1699 91.7224 17.3736C94.9368 17.6238 98.1975 17.4292 101.43 17.4292L101.449 17.4477Z" fill="#010101"/>
<path fill-rule="evenodd" clip-rule="evenodd" d="M226.856 34.3074C226.851 33.6155 226.846 32.9237 226.846 32.2318L226.828 32.2411C226.837 17.2809 226.689 17.1419 211.543 17.4569C211.36 17.4597 211.175 17.4575 210.99 17.4552C210.557 17.4501 210.121 17.4449 209.7 17.5033C205.828 18.0127 203.493 19.9209 203.586 24.1264C203.651 27.0443 203.632 29.9716 203.586 32.8896C203.573 33.7517 203.555 34.5645 203.538 35.3305C203.304 45.8968 203.267 47.5546 218.926 47.0623C224.669 46.877 226.661 44.7929 226.828 39.1515C226.879 37.5369 226.868 35.9221 226.856 34.3074ZM220.658 34.0471V32.2037C220.658 26.8773 220.661 24.4265 219.451 23.3856C218.4 22.4823 216.437 22.6408 212.766 22.9034C210.413 23.0701 209.459 23.9594 209.496 26.2752C209.561 30.277 209.561 34.2694 209.496 38.2711C209.459 40.6333 210.524 41.3928 212.849 41.5133C216.747 41.7121 218.699 41.8348 219.677 40.9181C220.658 39.9983 220.658 38.0323 220.658 34.0471Z" fill="#010101"/>
<path fill-rule="evenodd" clip-rule="evenodd" d="M233.081 31.2208C233.085 31.4256 233.089 31.6301 233.089 31.8336L233.08 31.8243C233.08 33.0252 233.095 34.226 233.11 35.4264C233.145 38.2261 233.18 41.023 233.024 43.8109C232.876 46.4232 233.7 47.1364 236.313 47.1828C239.166 47.2383 239.184 45.8026 239.064 43.7925C238.98 42.4123 238.897 41.0042 239.092 39.6517C239.145 39.2848 239.075 38.8586 239.005 38.43C238.844 37.441 238.68 36.4391 240.018 36.1225C240.049 36.1151 240.081 36.1077 240.113 36.1003C241.662 35.7402 243.764 35.2511 244.853 36.5671C245.219 37.0127 245.623 37.4473 246.031 37.8857C247.607 39.5799 249.236 41.3304 248.883 43.987C248.503 46.8308 249.883 47.0809 252.273 47.1828C254.809 47.2875 254.808 46.0328 254.806 44.6287C254.806 44.2943 254.805 43.9514 254.839 43.6164C255.08 41.1617 254.404 39.1052 252.699 37.3544C251.189 35.7982 250.606 34.8348 252.838 32.834C257.414 28.7303 255.154 18.5499 249.605 17.7533C249.254 17.7034 248.899 17.6519 248.542 17.6001C243.524 16.8727 237.954 16.0652 233.821 18.2443C232.177 19.1121 232.5 22.1735 232.834 25.3267C233.006 26.9528 233.18 28.6034 233.089 29.9902C233.064 30.3981 233.073 30.8101 233.081 31.2208ZM243.206 30.4877C243.334 30.4762 243.463 30.4645 243.593 30.4534V30.4441C243.676 30.4488 243.759 30.4535 243.842 30.4582C246.567 30.6137 248.977 30.7512 249.022 26.8222C249.063 23.0129 246.905 22.9673 244.473 22.9159C244.143 22.9089 243.808 22.9019 243.473 22.8853C240.518 22.7463 238.879 22.9594 238.869 26.85C238.852 30.8809 240.865 30.6991 243.206 30.4877Z" fill="black"/>
</svg>
