<svg width="1119" height="166" viewBox="0 0 1119 166" fill="none" xmlns="http://www.w3.org/2000/svg">
<g filter="url(#filter0_i_4192_2272)">
<path d="M0.68886 195.5V3.64803H43.5891L137.117 170.453L127.258 172.851V3.64803H160.832V195.5H117.932L24.4039 28.6954L34.263 26.2972V195.5H0.68886ZM187.108 195.5V59.6048H220.682V195.5H187.108ZM185.509 37.2221V0.184033H222.014V37.2221H185.509ZM288.914 198.165C279.499 198.165 271.328 196.211 264.4 192.302C257.65 188.217 252.409 182.71 248.679 175.782C245.126 168.854 243.35 161.038 243.35 152.333V59.6048H276.924V145.405C276.924 153.754 278.967 160.061 283.052 164.324C287.316 168.587 293.267 170.719 300.905 170.719C307.833 170.719 313.873 169.12 319.024 165.923C324.354 162.725 328.528 158.284 331.548 152.6C334.746 146.738 336.344 140.165 336.344 132.882L339.808 165.39C335.367 175.338 328.706 183.332 319.824 189.371C311.119 195.234 300.816 198.165 288.914 198.165ZM337.41 195.5V163.525H336.344V59.6048H370.185V195.5H337.41ZM397.768 195.5V59.6048H430.543V92.3796H431.342V195.5H397.768ZM431.342 124.621L427.878 92.3796C431.076 80.8329 436.494 72.0397 444.132 65.9999C451.771 59.9601 460.919 56.9402 471.578 56.9402C475.308 56.9402 477.973 57.2955 479.571 58.0061V89.715C478.683 89.3597 477.44 89.182 475.841 89.182C474.242 89.0044 472.288 88.9156 469.979 88.9156C457.011 88.9156 447.33 91.7578 440.935 97.4423C434.54 103.127 431.342 112.187 431.342 124.621ZM573.651 195.5C572.763 191.947 572.052 188.039 571.519 183.776C571.164 179.512 570.986 174.361 570.986 168.321H569.92V103.837C569.92 96.7318 567.878 91.4025 563.792 87.8497C559.884 84.1193 553.844 82.254 545.673 82.254C537.679 82.254 531.284 83.764 526.487 86.7839C521.869 89.6261 519.026 93.8007 517.961 99.3075H485.719C487.14 86.6951 493.18 76.4807 503.838 68.6645C514.497 60.8483 528.797 56.9402 546.738 56.9402C565.391 56.9402 579.513 61.2036 589.106 69.7304C598.698 78.0795 603.495 90.4255 603.495 106.768V168.321C603.495 172.584 603.761 176.937 604.294 181.378C605.005 185.819 605.982 190.526 607.225 195.5H573.651ZM526.487 198.165C512.809 198.165 501.884 194.789 493.713 188.039C485.719 181.111 481.722 171.874 481.722 160.327C481.722 147.892 486.252 138.033 495.311 130.75C504.371 123.467 517.161 118.582 533.682 116.095L576.049 109.7V131.016L539.277 136.612C531.284 137.856 525.244 140.076 521.158 143.274C517.25 146.471 515.296 150.912 515.296 156.597C515.296 161.748 517.161 165.745 520.892 168.587C524.622 171.252 529.774 172.584 536.346 172.584C545.939 172.584 553.933 170.186 560.328 165.39C566.723 160.594 569.92 154.731 569.92 147.803L573.651 168.321C570.098 178.091 564.236 185.552 556.064 190.704C548.071 195.678 538.212 198.165 526.487 198.165ZM629.506 195.5V3.64803H663.08V195.5H629.506ZM732.926 195.5V3.64803H767.566V195.5H732.926ZM793.921 195.5V59.6048H826.695V91.5802H827.495V195.5H793.921ZM889.314 195.5V109.7C889.314 101.35 887.182 95.0442 882.919 90.7808C878.655 86.5174 872.438 84.3857 864.266 84.3857C857.161 84.3857 850.766 85.9845 845.081 89.182C839.574 92.3796 835.222 96.8206 832.024 102.505C829.005 108.19 827.495 114.762 827.495 122.223L824.031 89.715C828.649 79.7671 835.4 71.8621 844.282 65.9999C853.164 59.9601 863.822 56.9402 876.257 56.9402C891.001 56.9402 902.459 61.1148 910.63 69.4639C918.98 77.813 923.154 88.9156 923.154 102.772V195.5H889.314ZM1007.97 198.165C994.292 198.165 982.212 195.145 971.731 189.105C961.428 183.065 953.257 174.716 947.217 164.058C941.355 153.222 938.424 140.964 938.424 127.286C938.424 113.608 941.355 101.528 947.217 91.0473C953.257 80.3888 961.428 72.0397 971.731 65.9999C982.212 59.9601 994.292 56.9402 1007.97 56.9402C1019.16 56.9402 1029.29 59.0719 1038.35 63.3353C1047.41 67.421 1054.87 73.2832 1060.73 80.9217C1066.59 88.3827 1070.32 97.087 1071.92 107.035H1039.68C1037.72 99.7517 1033.99 94.0671 1028.49 89.9814C1022.98 85.8957 1016.32 83.8528 1008.5 83.8528C1001.22 83.8528 994.913 85.6292 989.584 89.182C984.433 92.7348 980.436 97.7976 977.593 104.37C974.751 110.943 973.33 118.582 973.33 127.286C973.33 136.168 974.751 143.895 977.593 150.468C980.436 157.041 984.521 162.192 989.851 165.923C995.18 169.476 1001.4 171.252 1008.5 171.252C1016.32 171.252 1022.98 169.209 1028.49 165.123C1033.99 161.038 1037.72 155.353 1039.68 148.07H1071.92C1070.32 158.018 1066.5 166.811 1060.46 174.45C1054.6 181.91 1047.14 187.773 1038.08 192.036C1029.2 196.122 1019.16 198.165 1007.97 198.165ZM1079.77 195.5V157.13H1118.41V195.5H1079.77Z" fill="url(#paint0_linear_4192_2272)"/>
</g>
<defs>
<filter id="filter0_i_4192_2272" x="0.688858" y="0.184082" width="1118.72" height="199.98" filterUnits="userSpaceOnUse" color-interpolation-filters="sRGB">
<feFlood flood-opacity="0" result="BackgroundImageFix"/>
<feBlend mode="normal" in="SourceGraphic" in2="BackgroundImageFix" result="shape"/>
<feColorMatrix in="SourceAlpha" type="matrix" values="0 0 0 0 0 0 0 0 0 0 0 0 0 0 0 0 0 0 127 0" result="hardAlpha"/>
<feOffset dx="1" dy="2"/>
<feGaussianBlur stdDeviation="4"/>
<feComposite in2="hardAlpha" operator="arithmetic" k2="-1" k3="1"/>
<feColorMatrix type="matrix" values="0 0 0 0 0 0 0 0 0 0 0 0 0 0 0 0 0 0 0.16 0"/>
<feBlend mode="normal" in2="shape" result="effect1_innerShadow_4192_2272"/>
</filter>
<linearGradient id="paint0_linear_4192_2272" x1="560" y1="3.5" x2="560" y2="195.5" gradientUnits="userSpaceOnUse">
<stop stop-color="#F4F4F5"/>
<stop offset="1" stop-color="white" stop-opacity="0.2"/>
</linearGradient>
</defs>
</svg>
