<svg width="505" height="155" viewBox="0 0 505 155" fill="none" xmlns="http://www.w3.org/2000/svg">
<g clip-path="url(#clip0_1388_2345)">
<path d="M40.29 57.82C36.95 52.27 31.55 49.1 23.62 49.1C8.76998 49.19 -0.0200195 61.01 -0.0200195 77.37C-0.0200195 93.73 8.76998 105.55 23.62 105.55C26.35 105.7 29.07 105.23 31.6 104.17C34.13 103.11 36.39 101.49 38.22 99.43V107.31C38.22 112.67 35.38 119.03 26.39 119.03C19.58 119.03 16.22 115.22 15.04 111.12L2.97998 116.95C5.99998 124.69 13.22 131.19 27.23 131.19C48.01 131.19 53.34 117.18 53.34 104.91V49.89H40.62L40.28 57.82H40.29ZM26.87 92.7C19.44 92.7 15.06 86.67 15.06 77.26C15.06 67.85 19.44 61.82 26.87 61.82C34.3 61.82 38.59 67.85 38.59 77.26C38.59 86.67 34.3 92.7 26.87 92.7Z" fill="#150A45"/>
<path d="M336.41 49.01C333.51 49.01 330.64 49.66 328.02 50.94C325.4 52.22 323.1 54.08 321.29 56.39L320.31 49.89H306.89V104.68H322.56V73.75C322.56 65.2 325.74 61.84 332.03 61.84C336.41 61.84 340.05 63.78 340.05 72.13V104.68H355.72V68.94C355.72 57.36 348.54 49.01 336.42 49.01H336.41Z" fill="#150A45"/>
<path d="M93.6698 80.79C93.6698 88.3 90.4898 92.7 84.2198 92.7C79.8398 92.7 76.1798 90.76 76.1798 82.41V49.89H60.5098V85.56C60.5098 97.12 67.6898 105.51 79.8098 105.51C82.7198 105.51 85.5898 104.86 88.2098 103.57C90.8298 102.29 93.1398 100.42 94.9498 98.11L95.9298 104.63H109.33V49.89H93.6598V80.8L93.6698 80.79Z" fill="#150A45"/>
<path d="M133.25 49.89H117.58V104.68H133.25V49.89Z" fill="#150A45"/>
<path d="M176.74 53.91C172.95 50.65 168.07 48.99 163.12 49.29C148.2 49.29 139.39 61.1 139.39 77.47C139.39 93.84 148.2 105.65 163.12 105.65C166.3 105.86 169.47 105.21 172.32 103.77C175.17 102.33 177.61 100.16 179.37 97.46L179.76 104.67H192.48V24.46H176.81L176.74 53.91ZM166.54 92.7C159.11 92.7 154.73 86.67 154.73 77.26C154.73 67.85 159.11 61.82 166.54 61.82C173.97 61.82 178.35 67.85 178.35 77.26C178.35 86.67 173.97 92.7 166.54 92.7Z" fill="#150A45"/>
<path d="M125.42 23.14C123.69 23.14 122 23.66 120.56 24.64C119.12 25.62 118 27.01 117.34 28.63C116.68 30.26 116.51 32.05 116.84 33.77C117.18 35.5 118.01 37.08 119.23 38.33C120.45 39.57 122.01 40.42 123.71 40.77C125.41 41.11 127.16 40.94 128.76 40.26C130.36 39.59 131.72 38.45 132.68 36.98C133.64 35.52 134.15 33.8 134.15 32.04C134.15 29.68 133.23 27.42 131.59 25.75C129.95 24.08 127.73 23.14 125.41 23.14H125.42Z" fill="#150A45"/>
<path d="M298.6 49.89H282.93V104.68H298.6V49.89Z" fill="#150A45"/>
<path d="M290.77 23.14C289.04 23.14 287.35 23.66 285.91 24.64C284.47 25.62 283.35 27.01 282.69 28.63C282.03 30.26 281.86 32.05 282.19 33.77C282.53 35.5 283.36 37.08 284.58 38.33C285.8 39.57 287.36 40.42 289.06 40.77C290.76 41.11 292.51 40.94 294.11 40.26C295.71 39.59 297.07 38.45 298.03 36.98C298.99 35.52 299.5 33.8 299.5 32.04C299.5 29.68 298.58 27.42 296.94 25.75C295.3 24.08 293.08 23.14 290.76 23.14H290.77Z" fill="#150A45"/>
<path d="M412.82 79.0401V77.3801C412.82 60.4601 403.28 49.2001 387.55 49.2001C371.82 49.2001 361.23 60.4601 361.23 77.3801C361.23 94.3001 371.83 105.56 387.55 105.56C398.42 105.56 406.53 100.29 410.37 91.3901L399.02 85.9101C398.28 88.2801 396.79 90.3401 394.79 91.7701C392.79 93.2001 390.38 93.9201 387.94 93.8201C385.04 93.9001 382.23 92.8501 380.07 90.8901C377.91 88.9301 376.57 86.1901 376.32 83.2601H376.43L412.83 79.0501L412.82 79.0401ZM375.92 73.5101C375.92 65.5601 380.57 60.3601 387.5 60.3601C390.35 60.3101 393.12 61.3701 395.23 63.3301C397.34 65.2801 398.64 67.9901 398.86 70.8801L375.93 73.5201L375.92 73.5101Z" fill="#150A45"/>
<path d="M224.31 49.1901C208.57 49.1901 197.97 60.4501 197.97 77.3701C197.97 94.2901 208.57 105.55 224.31 105.55C235.16 105.55 243.27 100.28 247.02 91.3801L235.67 85.9001C234.94 88.2401 233.48 90.2701 231.52 91.7001C229.56 93.1301 227.2 93.8701 224.79 93.8101C221.87 93.9301 219.01 92.9001 216.81 90.9401C214.61 88.9701 213.25 86.2201 213 83.2501L249.33 79.0001V77.3401C249.56 60.4601 240.02 49.2101 224.31 49.2101V49.1901ZM212.62 73.5101C212.62 65.5601 217.16 60.3601 224.22 60.3601C227.07 60.3101 229.84 61.3701 231.95 63.3301C234.06 65.2801 235.36 67.9901 235.58 70.8801L212.62 73.5201V73.5101Z" fill="#150A45"/>
<path d="M270.56 88.17V24.46H254.89V89.79C254.89 97.37 256.39 105.3 269.65 105.3C272.16 105.43 274.67 105.01 277.01 104.05V91.82C277.01 91.82 270.56 93.48 270.56 88.17Z" fill="#150A45"/>
<path d="M412.86 119.08H62.3599V143.12H0.439941V154.15H73.1699V130.08H412.86V119.08V119.08Z" fill="#5532FA"/>
<path d="M462.04 0.410034H460.15V154.05H462.04V0.410034Z" fill="#777675"/>
</g>
<defs>
<clipPath id="clip0_1388_2345">
<rect width="505" height="155" fill="white"/>
</clipPath>
</defs>
</svg>
