<svg xmlns="http://www.w3.org/2000/svg" viewBox="0 0 625.56 216" height="216" width="625.56"><defs><style>.cls-1{fill:#ba0c2f;}.cls-2{fill:#838271;}.cls-3{fill:#fff;}</style></defs><title>CanadaLife_E_TM</title><path class="cls-1" d="M532.81,98.16c-10.97,0-17.71,10.93-17.71,21.89a22.75047,22.75047,0,0,0,.42,4.25c16.66-3.2,24.79-12.08,24.79-19.13C540.31,100.73,537.51,98.16,532.81,98.16Z"/><path class="cls-1" d="M384.65,119.57a186.67886,186.67886,0,0,1,4.5-28.16c5.66-24.56,15.24-43.27,28.76-43.27,9.41,0,12.9,6.53,12.98,14.26.21,20.36-16.34,45.25-36.02,60.9-.26,9.78,2.88,14.3,8.62,14.3,10.31,0,20.6-10.51,29.45-31.67,1.21-2.89,2.36-6.21,3.63-9.4,1.77-4.46,11.03-1.88,9.71,2.56-2.84,9.47-7.39,22.01-7.39,30.29,0,5.54,2.79,7.85,6.9,7.79,5.71-.08,10.39-4.18,13.74-8.17,0,0,2.35-11.78,3.04-15.03,9.66-45.87,20.81-65.82,35.44-65.82,8.74,0,13.17,5.37,13.17,14.04,0,15.91-10.96,34.19-32.04,59.44a67.13635,67.13635,0,0,0,23.04,4.02c.54,0,1.82,0,2.34-.01a40.69592,40.69592,0,0,1-.39-5.48c0-17.84,12.77-30.56,28.52-30.56,10.3,0,18.31,4.82,18.31,15.41,0,13.26-14.06,23.77-31.78,27.43,2.76,3.28,8.18,5.63,15.76,5.63,17.01,0,30.12-8.35,38.81-16.48V0H357.74V133.93A114.33148,114.33148,0,0,0,384.65,119.57Zm63.53-49.33a6.96166,6.96166,0,0,1,7.01,7.34,7.75684,7.75684,0,0,1-7.67,7.34,6.96167,6.96167,0,0,1-7.01-7.34A7.77821,7.77821,0,0,1,448.18,70.24Z"/><path class="cls-1" d="M497.87,56.72c-5.19,0-15.69,15.04-24.81,58.24,15.44-19.52,27.96-41.61,27.96-53.09C501.02,58.85,500.14,56.72,497.87,56.72Z"/><path class="cls-1" d="M534.94,147.19c-14.82,0-23.17-5.75-27.64-13.04-1.45.07-3.17.11-4.73.11a66.27759,66.27759,0,0,1-19.92-2.74,73.74889,73.74889,0,0,1,6.6,29.99c-.05,19.42-7.04,32.18-20.37,32.18-9.5,0-14.91-6.93-15.1-21.24-.14-10.43,1.25-19.08,3.31-30.79a20.57317,20.57317,0,0,1-13.18,4.66c-9.8.04-15.26-6.2-15.65-14.79-7.63,10.28-16.8,15.23-26.37,15.23-10.43,0-16-6.7-17.1-16.71a135.986,135.986,0,0,1-27.04,13.43V216h216V133.3A61.75413,61.75413,0,0,1,534.94,147.19Z"/><path class="cls-1" d="M417.93,56.74c-5.62,0-15.54,16.8-21.71,53.71,17.59-17.17,24.76-39.38,24.76-48.21C420.99,58.15,419.9,56.74,417.93,56.74Z"/><path class="cls-1" d="M469.71,131.23c-2.29,10.63-5.43,29.35-5.43,41.24,0,6.91,1.5,11.29,5.51,11.29,6.96,0,9.03-12.25,9.03-21.31,0-11.75-3.04-24.12-7.72-32.67Z"/><path class="cls-2" d="M11.41,121.61a31.85,31.85,0,0,0,.87,7.59,17.57288,17.57288,0,0,0,2.76,6.17,13.37125,13.37125,0,0,0,4.92,4.15,15.92951,15.92951,0,0,0,7.25,1.53,15.42,15.42,0,0,0,5.47-.91,18.62218,18.62218,0,0,0,4.12-2.09,18.11488,18.11488,0,0,0,3.61-3,31.21978,31.21978,0,0,1,2.33,3.12,7.03351,7.03351,0,0,1,1.42,3.88,3.09289,3.09289,0,0,1-.31,1.17,7.61306,7.61306,0,0,1-2.04,2.39,18.25261,18.25261,0,0,1-6.22,3.22,31.48166,31.48166,0,0,1-9.86,1.35,36.157,36.157,0,0,1-8.22-1.05,20.94892,20.94892,0,0,1-8.35-4.15,23.94538,23.94538,0,0,1-6.52-8.63Q0,130.815,0,121.72q0-8.43,2.77-13.89a24.72683,24.72683,0,0,1,6.8-8.59,24.4562,24.4562,0,0,1,8.58-4.38,30.84533,30.84533,0,0,1,8.01-1.25,30.54761,30.54761,0,0,1,7.65.89,23.46213,23.46213,0,0,1,5.82,2.3,12.526,12.526,0,0,1,3.44,2.74,4.53,4.53,0,0,1,1.15,2.87c0,1.85-1.39,4.55-3.13,6.86A22.28629,22.28629,0,0,0,35.61,105a15.55975,15.55975,0,0,0-8.05-2.14,17.22342,17.22342,0,0,0-7.34,1.42,13.31218,13.31218,0,0,0-5.02,3.98,16.56336,16.56336,0,0,0-2.88,6A28.29876,28.29876,0,0,0,11.41,121.61Z"/><path class="cls-2" d="M99.45,147.19a10.95233,10.95233,0,0,1-1.74-4.94,70.07048,70.07048,0,0,1-.52-9.76V113.65a35.00142,35.00142,0,0,0-.99-8.77,14.01907,14.01907,0,0,0-3.45-6.35,15.24992,15.24992,0,0,0-6.43-3.81,33.00567,33.00567,0,0,0-9.94-1.27,44.968,44.968,0,0,0-7.15.59,38.3703,38.3703,0,0,0-6.62,1.64,19.63363,19.63363,0,0,0-4.86,2.4,3.68733,3.68733,0,0,0-1.87,2.87,10.3446,10.3446,0,0,0,.73,3.08,15.68386,15.68386,0,0,0,1.94,3.78,32.82545,32.82545,0,0,1,7.29-3.86,26.11953,26.11953,0,0,1,9.23-1.49q6.585,0,8.91,2.51,2.325,2.52,2.32,7.32v1.8a23.38529,23.38529,0,0,0-2.38-.11H81.54a73.05858,73.05858,0,0,0-9.23.91,33.05429,33.05429,0,0,0-9.45,2.95,21.31139,21.31139,0,0,0-7.41,5.9,14.94635,14.94635,0,0,0-3,9.64h0a17.25993,17.25993,0,0,0,1.64,8.01,14.27729,14.27729,0,0,0,4.16,4.99,14.73151,14.73151,0,0,0,5.62,2.55,28.30259,28.30259,0,0,0,6.15.7,22.55632,22.55632,0,0,0,10.18-1.96,25.2541,25.2541,0,0,0,6.64-4.76,5.679,5.679,0,0,0,2.85,4.65,11.87407,11.87407,0,0,0,5.7,1.31,17.90865,17.90865,0,0,0,1.97-.1,12.62871,12.62871,0,0,0,1.61-.26.8464.8464,0,0,0,.67-.83A1.22379,1.22379,0,0,0,99.45,147.19ZM86.43,132.88a4.53419,4.53419,0,0,1-1.13,2.76,11.74819,11.74819,0,0,1-3.06,2.65,20.07382,20.07382,0,0,1-4.45,2.04,16.9611,16.9611,0,0,1-5.31.83c-3.51,0-5.9-.85-7.19-2.54a9.40109,9.40109,0,0,1-1.93-5.86,8.52179,8.52179,0,0,1,1.82-5.69,12.28153,12.28153,0,0,1,4.72-3.37,24.61082,24.61082,0,0,1,6.44-1.66,57.08967,57.08967,0,0,1,6.97-.44h3.11v11.28Z"/><path class="cls-2" d="M157.71,148.5H146.56V117.84q0-3.165-.22-5.9a12.95725,12.95725,0,0,0-1.19-4.68,6.70426,6.70426,0,0,0-3.13-3.02,13.72227,13.72227,0,0,0-6.03-1.08,16.79547,16.79547,0,0,0-9.36,2.42c-2.6,1.69-3.9,3.89-3.9,6.39v36.54H111.54v-53.92c.16-.02.36-.04.58-.06.19-.02.42-.03.68-.04s.57-.01.93-.01a10.57109,10.57109,0,0,1,5.35,1.37,6.11233,6.11233,0,0,1,2.9,4.7,23.96587,23.96587,0,0,1,7.1-4.91,24.24867,24.24867,0,0,1,10.62-2.16q7.74,0,11.84,3.46a15.917,15.917,0,0,1,5.35,8.64,25.37952,25.37952,0,0,1,.68,5.13c.07,1.88.11,3.71.11,5.47V148.5Z"/><path class="cls-2" d="M215.71,147.19a10.9521,10.9521,0,0,1-1.74-4.94,70.07076,70.07076,0,0,1-.52-9.76V113.65a35.00147,35.00147,0,0,0-.99-8.77,14.019,14.019,0,0,0-3.45-6.35,15.2501,15.2501,0,0,0-6.43-3.81,33.00569,33.00569,0,0,0-9.94-1.27,44.968,44.968,0,0,0-7.15.59,38.37,38.37,0,0,0-6.62,1.64,19.63372,19.63372,0,0,0-4.86,2.4,3.68732,3.68732,0,0,0-1.87,2.87,10.34373,10.34373,0,0,0,.73,3.08,15.6835,15.6835,0,0,0,1.94,3.78,32.82507,32.82507,0,0,1,7.29-3.86,26.11965,26.11965,0,0,1,9.23-1.49q6.585,0,8.91,2.51,2.325,2.52,2.32,7.32v1.8a23.38535,23.38535,0,0,0-2.38-.11h-2.38a73.05869,73.05869,0,0,0-9.23.91,33.05445,33.05445,0,0,0-9.45,2.95,21.43867,21.43867,0,0,0-7.42,5.9,14.94635,14.94635,0,0,0-3,9.64h0a17.25954,17.25954,0,0,0,1.64,8.01,14.27751,14.27751,0,0,0,4.16,4.99,14.73144,14.73144,0,0,0,5.62,2.55,28.30259,28.30259,0,0,0,6.15.7,22.55638,22.55638,0,0,0,10.18-1.96,25.25487,25.25487,0,0,0,6.64-4.76,5.679,5.679,0,0,0,2.85,4.65,11.87411,11.87411,0,0,0,5.7,1.31,17.90859,17.90859,0,0,0,1.97-.1,12.62715,12.62715,0,0,0,1.61-.26.84641.84641,0,0,0,.67-.83A.89191.89191,0,0,0,215.71,147.19Zm-13.02-14.31a4.53419,4.53419,0,0,1-1.13,2.76,11.74787,11.74787,0,0,1-3.06,2.65,20.0739,20.0739,0,0,1-4.45,2.04,16.9612,16.9612,0,0,1-5.31.83c-3.51,0-5.9-.85-7.19-2.54a9.401,9.401,0,0,1-1.93-5.86,8.52173,8.52173,0,0,1,1.82-5.69,12.28168,12.28168,0,0,1,4.72-3.37,24.61079,24.61079,0,0,1,6.44-1.66,57.08942,57.08942,0,0,1,6.97-.44h3.11v11.28Z"/><path class="cls-2" d="M275.44,147.19a10.9521,10.9521,0,0,1-1.74-4.94,70.07076,70.07076,0,0,1-.52-9.76V76.97a13.77706,13.77706,0,0,0-.67-4.72,7.06318,7.06318,0,0,0-1.83-2.85,5.95644,5.95644,0,0,0-2.63-1.4,12.67572,12.67572,0,0,0-2.89-.35c-.49,0-1.05.01-1.67.04a11.83507,11.83507,0,0,0-1.41.11V98.95a21.28385,21.28385,0,0,0-5.45-3.43,21.94092,21.94092,0,0,0-9.38-1.74,21.2425,21.2425,0,0,0-8.33,1.69,19.3023,19.3023,0,0,0-7.06,5.13,25.735,25.735,0,0,0-4.86,8.86,40.61293,40.61293,0,0,0-1.82,12.86,40.03254,40.03254,0,0,0,1.86,13.14,22.57664,22.57664,0,0,0,5,8.48,18.18087,18.18087,0,0,0,7.16,4.55,25.691,25.691,0,0,0,8.32,1.37,18.58233,18.58233,0,0,0,9.83-2.36,18.78268,18.78268,0,0,0,5.46-4.58,5.679,5.679,0,0,0,2.85,4.65,11.87411,11.87411,0,0,0,5.7,1.31,17.90864,17.90864,0,0,0,1.97-.1,12.62893,12.62893,0,0,0,1.61-.26.84641.84641,0,0,0,.67-.83A.81643.81643,0,0,0,275.44,147.19Zm-13.36-13.35a4.78647,4.78647,0,0,1-.85,2.63,7.63037,7.63037,0,0,1-2.44,2.3,15.40759,15.40759,0,0,1-3.77,1.64,16.17028,16.17028,0,0,1-4.72.66,12.75665,12.75665,0,0,1-6.42-1.48,11.36949,11.36949,0,0,1-4.19-4.16,18.71,18.71,0,0,1-2.23-6.3,46.00379,46.00379,0,0,1-.64-7.89q0-9.21,3.5-13.92a11.26075,11.26075,0,0,1,9.55-4.71,15.94188,15.94188,0,0,1,4.56.6,17.394,17.394,0,0,1,3.56,1.48,13.34887,13.34887,0,0,1,2.55,1.86c.62.61,1.13,1.12,1.54,1.54v25.75Z"/><path class="cls-2" d="M331.59,147.19a10.95186,10.95186,0,0,1-1.74-4.94,70.0692,70.0692,0,0,1-.52-9.76V113.65a35.00194,35.00194,0,0,0-.99-8.77,14.019,14.019,0,0,0-3.45-6.35,15.25,15.25,0,0,0-6.43-3.81,33.00562,33.00562,0,0,0-9.94-1.27,44.9679,44.9679,0,0,0-7.15.59,38.36984,38.36984,0,0,0-6.62,1.64,19.63364,19.63364,0,0,0-4.86,2.4,3.68733,3.68733,0,0,0-1.87,2.87,10.34373,10.34373,0,0,0,.73,3.08,15.68386,15.68386,0,0,0,1.94,3.78,32.82529,32.82529,0,0,1,7.29-3.86,26.11969,26.11969,0,0,1,9.23-1.49q6.585,0,8.91,2.51,2.325,2.52,2.32,7.32v1.8a23.38529,23.38529,0,0,0-2.38-.11h-2.38a73.059,73.059,0,0,0-9.23.91,33.05455,33.05455,0,0,0-9.45,2.95,21.31129,21.31129,0,0,0-7.41,5.9,14.94635,14.94635,0,0,0-3,9.64h0a17.25967,17.25967,0,0,0,1.64,8.01,14.27753,14.27753,0,0,0,4.16,4.99,14.7314,14.7314,0,0,0,5.62,2.55,28.30273,28.30273,0,0,0,6.15.7,22.55643,22.55643,0,0,0,10.18-1.96,25.25482,25.25482,0,0,0,6.64-4.76,5.679,5.679,0,0,0,2.85,4.65,11.87407,11.87407,0,0,0,5.7,1.31,17.90846,17.90846,0,0,0,1.97-.1,12.62733,12.62733,0,0,0,1.61-.26.84641.84641,0,0,0,.67-.83A.99066.99066,0,0,0,331.59,147.19Zm-13.01-14.31a4.53421,4.53421,0,0,1-1.13,2.76,11.74787,11.74787,0,0,1-3.06,2.65,20.07348,20.07348,0,0,1-4.45,2.04,16.9612,16.9612,0,0,1-5.31.83c-3.51,0-5.9-.85-7.19-2.54a9.401,9.401,0,0,1-1.93-5.86,8.52168,8.52168,0,0,1,1.82-5.69,12.28168,12.28168,0,0,1,4.72-3.37,24.61061,24.61061,0,0,1,6.44-1.66,57.08955,57.08955,0,0,1,6.97-.44h3.11v11.28Z"/><path class="cls-3" d="M447.53,84.92a7.75684,7.75684,0,0,0,7.67-7.34,6.96753,6.96753,0,0,0-7.01-7.34,7.75684,7.75684,0,0,0-7.67,7.34A6.96167,6.96167,0,0,0,447.53,84.92Z"/><path class="cls-3" d="M534.93,138.03c-7.58,0-13-2.35-15.76-5.63,17.73-3.66,31.78-14.17,31.78-27.43,0-10.59-8.01-15.41-18.31-15.41-15.75,0-28.52,12.72-28.52,30.56a40.56942,40.56942,0,0,0,.39,5.48c-.53.01-1.8.01-2.34.01a67.13659,67.13659,0,0,1-23.04-4.02c21.08-25.25,32.04-43.52,32.04-59.44,0-8.68-4.44-14.04-13.17-14.04-14.62,0-25.78,19.94-35.44,65.82-.69,3.26-3.04,15.03-3.04,15.03-3.34,3.99-8.02,8.09-13.74,8.17-4.11.06-6.9-2.24-6.9-7.79,0-8.28,4.55-20.82,7.39-30.29,1.33-4.43-7.94-7.01-9.71-2.56-1.27,3.2-2.42,6.52-3.63,9.4-8.86,21.16-19.14,31.67-29.45,31.67-5.74,0-8.88-4.51-8.62-14.3,19.69-15.65,36.23-40.54,36.02-60.9-.08-7.73-3.57-14.26-12.98-14.26-13.52,0-23.1,18.71-28.76,43.27a186.67872,186.67872,0,0,0-4.5,28.16,114.52254,114.52254,0,0,1-26.91,14.37v9.54a136.52867,136.52867,0,0,0,27.04-13.43c1.1,10.01,6.67,16.71,17.1,16.71,9.57,0,18.75-4.95,26.37-15.23.39,8.6,5.85,14.83,15.65,14.79a20.51765,20.51765,0,0,0,13.18-4.66c-2.06,11.72-3.45,20.36-3.31,30.79.19,14.3,5.6,21.24,15.1,21.24,13.34,0,20.33-12.76,20.37-32.18a73.71325,73.71325,0,0,0-6.6-29.99,66.32491,66.32491,0,0,0,19.92,2.74c1.56,0,3.27-.04,4.73-.11,4.46,7.29,12.82,13.04,27.64,13.04a61.70651,61.70651,0,0,0,38.8-13.89v-11.76C565.04,129.67,551.94,138.03,534.93,138.03Zm-117-81.29c1.97,0,3.05,1.41,3.05,5.51,0,8.83-7.17,31.04-24.76,48.21C402.4,73.53,412.31,56.74,417.93,56.74Zm79.94-.02c2.27,0,3.15,2.12,3.15,5.16,0,11.48-12.52,33.56-27.96,53.09C482.18,71.77,492.68,56.72,497.87,56.72ZM469.8,183.76c-4.01,0-5.51-4.39-5.51-11.29,0-11.88,3.14-30.6,5.43-41.24l1.4-1.45c4.68,8.55,7.72,20.92,7.72,32.67C478.83,171.51,476.75,183.76,469.8,183.76Zm45.3-63.71c0-10.96,6.74-21.89,17.71-21.89,4.7,0,7.51,2.57,7.51,7.01,0,7.04-8.13,15.92-24.79,19.13A21.10217,21.10217,0,0,1,515.1,120.05Z"/><polygon class="cls-2" points="621.51 0.74 614.76 18.89 608.01 0.74 603.96 0.74 603.96 22.34 606.66 22.34 606.66 4.34 606.81 4.34 613.41 22.34 616.11 22.34 622.71 4.34 622.86 4.34 622.86 22.34 625.56 22.34 625.56 0.74 621.51 0.74"/><polygon class="cls-2" points="584.16 3.14 591.51 3.14 591.51 22.34 594.21 22.34 594.21 3.14 601.56 3.14 601.56 0.74 584.16 0.74 584.16 3.14"/></svg>